<svg width="69" height="69" viewBox="0 0 69 69" fill="none" xmlns="http://www.w3.org/2000/svg">
<circle cx="34.2802" cy="34.4857" r="6.64271" fill="url(#paint0_linear_2073_55695)"/>
<path fill-rule="evenodd" clip-rule="evenodd" d="M34.2584 0.671544C34.6552 0.67149 34.9887 0.961486 35.0637 1.3511C36.6057 9.36606 40.2729 16.7244 46.143 22.5945C52.0025 28.454 59.3449 32.1186 67.343 33.6655C67.7574 33.7456 68.066 34.1004 68.0652 34.5225C68.0644 34.9423 67.7577 35.2948 67.3458 35.3758C59.3788 36.9424 52.0642 40.6103 46.2193 46.4552C40.3751 52.2994 36.7074 59.613 35.1404 67.5789C35.0616 67.9795 34.7186 68.2775 34.3103 68.2783C33.8995 68.2791 33.5541 67.9788 33.4764 67.5754C31.9335 59.5632 28.2668 52.2075 22.3984 46.3391C16.5217 40.4624 9.15342 36.7936 1.12799 35.2546C0.74399 35.181 0.458241 34.8521 0.458457 34.4611C0.458674 34.0706 0.744089 33.7424 1.12757 33.6686C9.14415 32.127 16.5041 28.4596 22.3752 22.5885C28.2438 16.7198 31.9106 9.36363 33.4534 1.35098C33.5284 0.961507 33.8618 0.671599 34.2584 0.671544ZM34.2682 11.863C34.5336 11.863 34.7567 12.057 34.8068 12.3176C35.8386 17.6802 38.2922 22.6035 42.2197 26.5311C46.1401 30.4515 51.0527 32.9033 56.404 33.9384C56.6814 33.992 56.8879 34.2295 56.8873 34.5119C56.8868 34.7929 56.6816 35.0288 56.4059 35.083C51.0754 36.1312 46.1814 38.5853 42.2707 42.496C38.3605 46.4062 35.9066 51.2995 34.8581 56.6292C34.8054 56.8972 34.576 57.0966 34.3028 57.0971C34.028 57.0976 33.7969 56.8968 33.745 56.6269C32.7127 51.2662 30.2594 46.3447 26.333 42.4183C22.401 38.4863 17.4709 36.0316 12.1012 35.0019C11.8443 34.9526 11.6532 34.7326 11.6533 34.471C11.6534 34.2098 11.8444 33.9901 12.1009 33.9408C17.4647 32.9094 22.3892 30.4556 26.3175 26.5273C30.2441 22.6007 32.6975 17.6787 33.7297 12.3175C33.7798 12.057 34.0028 11.8631 34.2682 11.863Z" fill="#037ED4"/>
<path fill-rule="evenodd" clip-rule="evenodd" d="M34.2584 0.671544C34.6552 0.67149 34.9887 0.961486 35.0637 1.3511C36.6057 9.36606 40.2729 16.7244 46.143 22.5945C52.0025 28.454 59.3449 32.1186 67.343 33.6655C67.7574 33.7456 68.066 34.1004 68.0652 34.5225C68.0644 34.9423 67.7577 35.2948 67.3458 35.3758C59.3788 36.9424 52.0642 40.6103 46.2193 46.4552C40.3751 52.2994 36.7074 59.613 35.1404 67.5789C35.0616 67.9795 34.7186 68.2775 34.3103 68.2783C33.8995 68.2791 33.5541 67.9788 33.4764 67.5754C31.9335 59.5632 28.2668 52.2075 22.3984 46.3391C16.5217 40.4624 9.15342 36.7936 1.12799 35.2546C0.74399 35.181 0.458241 34.8521 0.458457 34.4611C0.458674 34.0706 0.744089 33.7424 1.12757 33.6686C9.14415 32.127 16.5041 28.4596 22.3752 22.5885C28.2438 16.7198 31.9106 9.36363 33.4534 1.35098C33.5284 0.961507 33.8618 0.671599 34.2584 0.671544ZM34.2682 11.863C34.5336 11.863 34.7567 12.057 34.8068 12.3176C35.8386 17.6802 38.2922 22.6035 42.2197 26.5311C46.1401 30.4515 51.0527 32.9033 56.404 33.9384C56.6814 33.992 56.8879 34.2295 56.8873 34.5119C56.8868 34.7929 56.6816 35.0288 56.4059 35.083C51.0754 36.1312 46.1814 38.5853 42.2707 42.496C38.3605 46.4062 35.9066 51.2995 34.8581 56.6292C34.8054 56.8972 34.576 57.0966 34.3028 57.0971C34.028 57.0976 33.7969 56.8968 33.745 56.6269C32.7127 51.2662 30.2594 46.3447 26.333 42.4183C22.401 38.4863 17.4709 36.0316 12.1012 35.0019C11.8443 34.9526 11.6532 34.7326 11.6533 34.471C11.6534 34.2098 11.8444 33.9901 12.1009 33.9408C17.4647 32.9094 22.3892 30.4556 26.3175 26.5273C30.2441 22.6007 32.6975 17.6787 33.7297 12.3175C33.7798 12.057 34.0028 11.8631 34.2682 11.863Z" fill="#037ED4"/>
<defs>
<linearGradient id="paint0_linear_2073_55695" x1="28.6446" y1="29.3192" x2="40.0301" y2="40.2501" gradientUnits="userSpaceOnUse">
<stop stop-color="#73FFB9"/>
<stop offset="0.5" stop-color="#56A2FF"/>
<stop offset="1" stop-color="#9E74E2"/>
</linearGradient>
</defs>
</svg>
