<svg width="35" height="35" viewBox="0 0 35 35" fill="none" xmlns="http://www.w3.org/2000/svg">
<circle cx="17.3944" cy="17.3441" r="3.33876" fill="url(#paint0_linear_2073_55205)"/>
<path fill-rule="evenodd" clip-rule="evenodd" d="M17.3834 0.348499C17.5828 0.348472 17.7505 0.494216 17.7881 0.690025C18.5632 4.71852 20.4064 8.41701 23.3569 11.3674C26.302 14.3125 29.9924 16.1544 34.0124 16.9319C34.2207 16.9722 34.3758 17.1505 34.3754 17.3627C34.375 17.5737 34.2208 17.7509 34.0138 17.7916C30.0094 18.579 26.333 20.4226 23.3952 23.3603C20.4578 26.2977 18.6143 29.9737 17.8267 33.9775C17.7871 34.1788 17.6147 34.3286 17.4095 34.329C17.2031 34.3294 17.0295 34.1785 16.9904 33.9758C16.2149 29.9487 14.372 26.2515 11.4224 23.302C8.46865 20.3482 4.76515 18.5042 0.731379 17.7306C0.538378 17.6936 0.394759 17.5284 0.394868 17.3318C0.394976 17.1356 0.538426 16.9706 0.731165 16.9335C4.76049 16.1587 8.45976 14.3154 11.4107 11.3644C14.3604 8.41469 16.2034 4.7173 16.9788 0.689969C17.0165 0.494227 17.1841 0.348526 17.3834 0.348499ZM17.3883 5.97339C17.5217 5.97337 17.6338 6.07087 17.659 6.20186C18.1776 8.89722 19.4108 11.3718 21.3849 13.3458C23.3554 15.3163 25.8246 16.5487 28.5143 17.0689C28.6537 17.0959 28.7575 17.2152 28.7572 17.3572C28.7569 17.4984 28.6538 17.6169 28.5152 17.6442C25.836 18.171 23.3761 19.4045 21.4105 21.3701C19.4452 23.3355 18.2118 25.7949 17.6848 28.4738C17.6583 28.6085 17.543 28.7087 17.4057 28.7089C17.2676 28.7092 17.1514 28.6083 17.1253 28.4726C16.6064 25.7782 15.3734 23.3045 13.3999 21.3311C11.4236 19.3548 8.94568 18.121 6.24678 17.6035C6.11765 17.5787 6.02156 17.4681 6.02163 17.3366C6.0217 17.2053 6.11768 17.0949 6.24664 17.0701C8.94256 16.5517 11.4177 15.3184 13.3921 13.3439C15.3657 11.3703 16.5988 8.89646 17.1176 6.20183C17.1428 6.07088 17.2549 5.97341 17.3883 5.97339Z" fill="#037ED4"/>
<path fill-rule="evenodd" clip-rule="evenodd" d="M17.3834 0.348499C17.5828 0.348472 17.7505 0.494216 17.7881 0.690025C18.5632 4.71852 20.4064 8.41701 23.3569 11.3674C26.302 14.3125 29.9924 16.1544 34.0124 16.9319C34.2207 16.9722 34.3758 17.1505 34.3754 17.3627C34.375 17.5737 34.2208 17.7509 34.0138 17.7916C30.0094 18.579 26.333 20.4226 23.3952 23.3603C20.4578 26.2977 18.6143 29.9737 17.8267 33.9775C17.7871 34.1788 17.6147 34.3286 17.4095 34.329C17.2031 34.3294 17.0295 34.1785 16.9904 33.9758C16.2149 29.9487 14.372 26.2515 11.4224 23.302C8.46865 20.3482 4.76515 18.5042 0.731379 17.7306C0.538378 17.6936 0.394759 17.5284 0.394868 17.3318C0.394976 17.1356 0.538426 16.9706 0.731165 16.9335C4.76049 16.1587 8.45976 14.3154 11.4107 11.3644C14.3604 8.41469 16.2034 4.7173 16.9788 0.689969C17.0165 0.494227 17.1841 0.348526 17.3834 0.348499ZM17.3883 5.97339C17.5217 5.97337 17.6338 6.07087 17.659 6.20186C18.1776 8.89722 19.4108 11.3718 21.3849 13.3458C23.3554 15.3163 25.8246 16.5487 28.5143 17.0689C28.6537 17.0959 28.7575 17.2152 28.7572 17.3572C28.7569 17.4984 28.6538 17.6169 28.5152 17.6442C25.836 18.171 23.3761 19.4045 21.4105 21.3701C19.4452 23.3355 18.2118 25.7949 17.6848 28.4738C17.6583 28.6085 17.543 28.7087 17.4057 28.7089C17.2676 28.7092 17.1514 28.6083 17.1253 28.4726C16.6064 25.7782 15.3734 23.3045 13.3999 21.3311C11.4236 19.3548 8.94568 18.121 6.24678 17.6035C6.11765 17.5787 6.02156 17.4681 6.02163 17.3366C6.0217 17.2053 6.11768 17.0949 6.24664 17.0701C8.94256 16.5517 11.4177 15.3184 13.3921 13.3439C15.3657 11.3703 16.5988 8.89646 17.1176 6.20183C17.1428 6.07088 17.2549 5.97341 17.3883 5.97339Z" fill="#037ED4"/>
<defs>
<linearGradient id="paint0_linear_2073_55205" x1="14.5618" y1="14.7473" x2="20.2844" y2="20.2414" gradientUnits="userSpaceOnUse">
<stop stop-color="#73FFB9"/>
<stop offset="0.5" stop-color="#56A2FF"/>
<stop offset="1" stop-color="#9E74E2"/>
</linearGradient>
</defs>
</svg>
