<svg width="33" height="33" viewBox="0 0 33 33" fill="none" xmlns="http://www.w3.org/2000/svg">
<g clip-path="url(#clip0_757_14071)">
<path d="M16.5099 29.7579C23.6854 29.7579 29.5023 23.9411 29.5023 16.7656C29.5023 9.59008 23.6854 3.77319 16.5099 3.77319C9.33446 3.77319 3.51758 9.59008 3.51758 16.7656C3.51758 23.9411 9.33446 29.7579 16.5099 29.7579Z" fill="#F5AE1A"/>
<path d="M29.5021 16.7656C29.5021 23.9398 23.6839 29.7579 16.5097 29.7579C12.7419 29.7579 9.34767 28.1542 6.97656 25.5923C9.29489 27.7401 12.3928 29.0515 15.8033 29.0515C22.9775 29.0515 28.7956 23.2333 28.7956 16.0591C28.7956 12.6527 27.4842 9.55075 25.3364 7.23242C27.8983 9.60353 29.5021 12.9978 29.5021 16.7656Z" fill="#D2952D"/>
<path d="M26.9233 19.2338C28.2828 13.4825 24.7226 7.71818 18.9714 6.35869C13.2202 4.99921 7.45582 8.55941 6.09633 14.3106C4.73685 20.0618 8.29705 25.8262 14.0483 27.1857C19.7995 28.5452 25.5638 24.985 26.9233 19.2338Z" fill="#E2A02F"/>
<path d="M25.4422 17.5002C25.4422 22.0273 21.7719 25.6976 17.2448 25.6976C14.7925 25.6976 12.596 24.6217 11.0938 22.9164C12.5392 24.1913 14.4352 24.9627 16.514 24.9627C21.041 24.9627 24.7114 21.2924 24.7114 16.7653C24.7114 14.6866 23.94 12.7905 22.6651 11.3451C24.3663 12.8473 25.4422 15.0479 25.4422 17.5002Z" fill="#DC8C1E"/>
<path d="M17.2652 15.8724C16.1243 15.4501 15.6573 15.1618 15.6573 14.7233C15.6573 14.3498 15.9416 13.9641 16.8064 13.9641C17.7727 13.9641 18.3939 14.2727 18.7349 14.427L19.1369 12.9085C18.6862 12.6973 18.0772 12.5025 17.1921 12.47V11.2844H15.8725V12.5593C14.4312 12.8354 13.6029 13.7652 13.6029 14.9548C13.6029 16.2499 14.5814 16.928 16.0187 17.4111C17.0175 17.7481 17.4479 18.0608 17.4479 18.5764C17.4479 19.1083 16.92 19.4087 16.1567 19.4087C15.2838 19.4087 14.4921 19.1245 13.9237 18.82L13.5217 20.3872C14.0252 20.6755 14.9062 20.9272 15.8035 20.9637V22.2427H17.1231V20.8622C18.6659 20.5943 19.5063 19.5833 19.5063 18.3896C19.5023 17.1757 18.8648 16.4367 17.2652 15.8724Z" fill="#F09922"/>
<path d="M26.0593 7.95511C23.7451 5.81543 20.6513 4.51213 17.2489 4.51213C10.0747 4.51213 4.25652 10.3303 4.25652 17.5045C4.25652 20.9028 5.56388 23.9966 7.6995 26.315C5.12944 23.9398 3.51758 20.5415 3.51758 16.7656C3.51758 9.59134 9.33572 3.77319 16.5099 3.77319C20.2859 3.77319 23.6842 5.38506 26.0593 7.95511Z" fill="#FFC86B"/>
<path d="M24.4839 9.62777C22.5919 7.93064 20.0868 6.89937 17.3462 6.89937C11.4347 6.89531 6.6397 11.6903 6.6397 17.6018C6.6397 20.3465 7.67097 22.8475 9.36809 24.7395C7.18375 22.7785 5.80737 19.9323 5.80737 16.7655C5.80737 10.8539 10.5983 6.06299 16.5098 6.06299C19.6767 6.06299 22.5269 7.43937 24.4839 9.62777Z" fill="#DC8C1E"/>
<circle cx="16.5138" cy="16.7637" r="8.26282" fill="#F4BB45"/>
<path d="M14.1013 17.352V15.5736H11.6895V21.5841H17.7158V17.352H14.1013ZM14.1013 20.0598V18.8697H15.2772V20.0598H14.1013Z" fill="#D97D00"/>
<path d="M15.304 11.9432V16.162L18.9184 16.1553V17.9604H21.3237V11.9432H15.304ZM17.7158 14.6376V13.4609H18.9184V14.6309H17.7158V14.6376Z" fill="#D97D00"/>
<path d="M14.108 11.9432H11.6895V14.3635H14.108V11.9432Z" fill="#D97D00"/>
<path d="M21.3302 19.1638H18.9116V21.5841H21.3302V19.1638Z" fill="#D97D00"/>
</g>
<defs>
<clipPath id="clip0_757_14071">
<rect width="25.9847" height="25.9847" fill="white" transform="translate(3.51758 3.77319)"/>
</clipPath>
</defs>
</svg>
