<svg width="29" height="30" viewBox="0 0 29 30" fill="none" xmlns="http://www.w3.org/2000/svg">
<g filter="url(#filter0_d_2039_16382)">
<mask id="mask0_2039_16382" style="mask-type:luminance" maskUnits="userSpaceOnUse" x="0" y="0" width="26" height="26">
<path fill-rule="evenodd" clip-rule="evenodd" d="M9.7477 11.3783V0.0090332H25.9819V16.2252H19.4954V11.3603L9.7477 11.3783ZM16.2522 4.09911V7.25224H19.4954V4.09911H16.2522ZM6.50447 9.79276V14.5855H16.2522V25.9909H0V9.79276H6.50447ZM6.50447 18.6756V21.8828H9.67563V18.6756H6.50447ZM6.52249 0.0090332H0V6.53153H6.52249V0.0090332ZM19.4774 19.4684H25.9999V25.9909H19.4774V19.4684Z" fill="url(#paint0_linear_2039_16382)"/>
</mask>
<g mask="url(#mask0_2039_16382)">
</g>
<g clip-path="url(#clip0_2039_16382)">
<path d="M10.3215 13.3003V9.74756H5.5V21.7546H17.5471V13.3003H10.3215ZM10.3215 18.7095V16.3321H12.6722V18.7095H10.3215Z" fill="white"/>
<path d="M12.7256 2.49536V10.923L19.9512 10.9097V14.5158H24.7594V2.49536H12.7256ZM17.5471 7.87783V5.52717H19.9512V7.86449H17.5471V7.87783Z" fill="white"/>
<path d="M10.3349 2.49536H5.5V7.33024H10.3349V2.49536Z" fill="#FF8A00"/>
<path d="M24.7729 16.9199H19.938V21.7548H24.7729V16.9199Z" fill="#037ED4"/>
</g>
</g>
<defs>
<filter id="filter0_d_2039_16382" x="1.5" y="2.49536" width="27.5" height="27.2593" filterUnits="userSpaceOnUse" color-interpolation-filters="sRGB">
<feFlood flood-opacity="0" result="BackgroundImageFix"/>
<feColorMatrix in="SourceAlpha" type="matrix" values="0 0 0 0 0 0 0 0 0 0 0 0 0 0 0 0 0 0 127 0" result="hardAlpha"/>
<feOffset dy="4"/>
<feGaussianBlur stdDeviation="2"/>
<feComposite in2="hardAlpha" operator="out"/>
<feColorMatrix type="matrix" values="0 0 0 0 0 0 0 0 0 0 0 0 0 0 0 0 0 0 0.25 0"/>
<feBlend mode="normal" in2="BackgroundImageFix" result="effect1_dropShadow_2039_16382"/>
<feBlend mode="normal" in="SourceGraphic" in2="effect1_dropShadow_2039_16382" result="shape"/>
</filter>
<linearGradient id="paint0_linear_2039_16382" x1="-0.000121986" y1="1" x2="25.9999" y2="26" gradientUnits="userSpaceOnUse">
<stop stop-color="#1BFFFF"/>
<stop offset="1" stop-color="#CCAE16"/>
</linearGradient>
<clipPath id="clip0_2039_16382">
<rect width="19.5001" height="19.2594" fill="white" transform="translate(5.5 2.49536)"/>
</clipPath>
</defs>
</svg>
