<svg width="33" height="32" viewBox="0 0 33 32" fill="none" xmlns="http://www.w3.org/2000/svg">
<path d="M22.761 6.26069V3.47803V6.26069ZM10.239 6.26069V3.47803V6.26069ZM4.32586 10.4347H28.6741H4.32586ZM3.97803 13.2786C3.97803 10.3359 3.97803 8.86387 4.58465 7.73967C5.13317 6.73695 5.98432 5.93303 7.01669 5.44259C8.20767 4.86936 9.76596 4.86936 12.8825 4.86936H20.1175C23.234 4.86936 24.7923 4.86936 25.9833 5.44259C27.031 5.94625 27.8811 6.75044 28.4153 7.73828C29.022 8.86526 29.022 10.3373 29.022 13.2799V20.1142C29.022 23.0568 29.022 24.5289 28.4153 25.653C27.8668 26.6558 27.0157 27.4597 25.9833 27.9501C24.7923 28.522 23.234 28.522 20.1175 28.522H12.8825C9.76596 28.522 8.20767 28.522 7.01669 27.9487C5.98453 27.4587 5.1334 26.6553 4.58465 25.653C3.97803 24.5261 3.97803 23.054 3.97803 20.1114V13.2786Z" fill="#0A0C1A"/>
<path d="M22.761 6.26069V3.47803M10.239 6.26069V3.47803M4.32586 10.4347H28.6741M3.97803 13.2786C3.97803 10.3359 3.97803 8.86387 4.58465 7.73967C5.13317 6.73695 5.98432 5.93303 7.01669 5.44259C8.20767 4.86936 9.76596 4.86936 12.8825 4.86936H20.1175C23.234 4.86936 24.7923 4.86936 25.9833 5.44259C27.031 5.94625 27.8811 6.75044 28.4154 7.73828C29.022 8.86526 29.022 10.3373 29.022 13.2799V20.1142C29.022 23.0568 29.022 24.5289 28.4154 25.653C27.8668 26.6558 27.0157 27.4597 25.9833 27.9501C24.7923 28.522 23.234 28.522 20.1175 28.522H12.8825C9.76596 28.522 8.20767 28.522 7.01669 27.9487C5.98453 27.4587 5.1334 26.6553 4.58465 25.653C3.97803 24.5261 3.97803 23.054 3.97803 20.1114V13.2786Z" stroke="#5F5F5F" stroke-width="1.6" stroke-linecap="round" stroke-linejoin="round"/>
<path d="M12.353 20.898C13.057 20.2894 13.6107 19.7907 14.014 19.402C14.4247 19.006 14.7657 18.5954 15.037 18.17C15.3083 17.7447 15.444 17.3194 15.444 16.894C15.444 16.454 15.3377 16.1094 15.125 15.86C14.9197 15.6107 14.5933 15.486 14.146 15.486C13.7133 15.486 13.376 15.6254 13.134 15.904C12.8993 16.1754 12.7747 16.542 12.76 17.004H11.55C11.572 16.168 11.8213 15.53 12.298 15.09C12.782 14.6427 13.3943 14.419 14.135 14.419C14.9343 14.419 15.5577 14.639 16.005 15.079C16.4597 15.519 16.687 16.1057 16.687 16.839C16.687 17.367 16.5513 17.8767 16.28 18.368C16.016 18.852 15.697 19.2884 15.323 19.677C14.9563 20.0584 14.487 20.502 13.915 21.008L13.42 21.448H16.907V22.493H11.561V21.58L12.353 20.898ZM17.8436 15.728V14.584H20.1316V22.603H18.8666V15.728H17.8436Z" fill="#5F5F5F"/>
</svg>
