<svg width="33" height="32" viewBox="0 0 33 32" fill="none" xmlns="http://www.w3.org/2000/svg">
<path d="M22.761 6.26069V3.47803V6.26069ZM10.239 6.26069V3.47803V6.26069ZM4.32586 10.4347H28.6741H4.32586ZM3.97803 13.2786C3.97803 10.3359 3.97803 8.86387 4.58465 7.73967C5.13317 6.73695 5.98432 5.93303 7.01669 5.44259C8.20767 4.86936 9.76596 4.86936 12.8825 4.86936H20.1175C23.234 4.86936 24.7923 4.86936 25.9833 5.44259C27.031 5.94625 27.8811 6.75044 28.4153 7.73828C29.022 8.86526 29.022 10.3373 29.022 13.2799V20.1142C29.022 23.0568 29.022 24.5289 28.4153 25.653C27.8668 26.6558 27.0157 27.4597 25.9833 27.9501C24.7923 28.522 23.234 28.522 20.1175 28.522H12.8825C9.76596 28.522 8.20767 28.522 7.01669 27.9487C5.98453 27.4587 5.1334 26.6553 4.58465 25.653C3.97803 24.5261 3.97803 23.054 3.97803 20.1114V13.2786Z" fill="#0A0C1A"/>
<path d="M22.761 6.26069V3.47803M10.239 6.26069V3.47803M4.32586 10.4347H28.6741M3.97803 13.2786C3.97803 10.3359 3.97803 8.86387 4.58465 7.73967C5.13317 6.73695 5.98432 5.93303 7.01669 5.44259C8.20767 4.86936 9.76596 4.86936 12.8825 4.86936H20.1175C23.234 4.86936 24.7923 4.86936 25.9833 5.44259C27.031 5.94625 27.8811 6.75044 28.4154 7.73828C29.022 8.86526 29.022 10.3373 29.022 13.2799V20.1142C29.022 23.0568 29.022 24.5289 28.4154 25.653C27.8668 26.6558 27.0157 27.4597 25.9833 27.9501C24.7923 28.522 23.234 28.522 20.1175 28.522H12.8825C9.76596 28.522 8.20767 28.522 7.01669 27.9487C5.98453 27.4587 5.1334 26.6553 4.58465 25.653C3.97803 24.5261 3.97803 23.054 3.97803 20.1114V13.2786Z" stroke="#5F5F5F" stroke-width="1.6" stroke-linecap="round" stroke-linejoin="round"/>
<path d="M11.495 15.728V14.584H13.783V22.603H12.518V15.728H11.495ZM15.3517 20.931V19.985L19.0477 14.683H20.5657V19.842H21.5887V20.931H20.5657V22.603H19.3337V20.931H15.3517ZM19.3887 15.959L16.7927 19.842H19.3887V15.959Z" fill="#5F5F5F"/>
</svg>
