<svg width="33" height="32" viewBox="0 0 33 32" fill="none" xmlns="http://www.w3.org/2000/svg">
<path d="M22.761 6.26069V3.47803V6.26069ZM10.239 6.26069V3.47803V6.26069ZM4.32586 10.4347H28.6741H4.32586ZM3.97803 13.2786C3.97803 10.3359 3.97803 8.86387 4.58465 7.73967C5.13317 6.73695 5.98432 5.93303 7.01669 5.44259C8.20767 4.86936 9.76596 4.86936 12.8825 4.86936H20.1175C23.234 4.86936 24.7923 4.86936 25.9833 5.44259C27.031 5.94625 27.8811 6.75044 28.4153 7.73828C29.022 8.86526 29.022 10.3373 29.022 13.2799V20.1142C29.022 23.0568 29.022 24.5289 28.4153 25.653C27.8668 26.6558 27.0157 27.4597 25.9833 27.9501C24.7923 28.522 23.234 28.522 20.1175 28.522H12.8825C9.76596 28.522 8.20767 28.522 7.01669 27.9487C5.98453 27.4587 5.1334 26.6553 4.58465 25.653C3.97803 24.5261 3.97803 23.054 3.97803 20.1114V13.2786Z" fill="#0A0C1A"/>
<path d="M22.761 6.26069V3.47803M10.239 6.26069V3.47803M4.32586 10.4347H28.6741M3.97803 13.2786C3.97803 10.3359 3.97803 8.86387 4.58465 7.73967C5.13317 6.73695 5.98432 5.93303 7.01669 5.44259C8.20767 4.86936 9.76596 4.86936 12.8825 4.86936H20.1175C23.234 4.86936 24.7923 4.86936 25.9833 5.44259C27.031 5.94625 27.8811 6.75044 28.4154 7.73828C29.022 8.86526 29.022 10.3373 29.022 13.2799V20.1142C29.022 23.0568 29.022 24.5289 28.4154 25.653C27.8668 26.6558 27.0157 27.4597 25.9833 27.9501C24.7923 28.522 23.234 28.522 20.1175 28.522H12.8825C9.76596 28.522 8.20767 28.522 7.01669 27.9487C5.98453 27.4587 5.1334 26.6553 4.58465 25.653C3.97803 24.5261 3.97803 23.054 3.97803 20.1114V13.2786Z" stroke="#57A3FF" stroke-width="1.6" stroke-linecap="round" stroke-linejoin="round"/>
<path d="M10.16 18.489C10.16 17.2204 10.3727 16.2304 10.798 15.519C11.2307 14.8004 11.9713 14.441 13.02 14.441C14.0687 14.441 14.8057 14.8004 15.231 15.519C15.6637 16.2304 15.88 17.2204 15.88 18.489C15.88 19.7724 15.6637 20.777 15.231 21.503C14.8057 22.2217 14.0687 22.581 13.02 22.581C11.9713 22.581 11.2307 22.2217 10.798 21.503C10.3727 20.777 10.16 19.7724 10.16 18.489ZM14.648 18.489C14.648 17.895 14.6077 17.3927 14.527 16.982C14.4537 16.5714 14.2997 16.2377 14.065 15.981C13.8303 15.717 13.482 15.585 13.02 15.585C12.558 15.585 12.2097 15.717 11.975 15.981C11.7403 16.2377 11.5827 16.5714 11.502 16.982C11.4287 17.3927 11.392 17.895 11.392 18.489C11.392 19.105 11.4287 19.622 11.502 20.04C11.5753 20.458 11.7293 20.7954 11.964 21.052C12.206 21.3087 12.558 21.437 13.02 21.437C13.482 21.437 13.8303 21.3087 14.065 21.052C14.307 20.7954 14.4647 20.458 14.538 20.04C14.6113 19.622 14.648 19.105 14.648 18.489ZM22.2889 15.552L19.2309 22.603H17.9659L21.0569 15.684H16.9869V14.617H22.2889V15.552Z" fill="#57A3FF"/>
</svg>
