<svg width="24" height="24" viewBox="0 0 24 24" fill="none" xmlns="http://www.w3.org/2000/svg">
<path d="M12 24C11.625 24 11.2499 23.915 10.908 23.7449L8.55771 22.5758C8.48061 22.5375 8.39796 22.5117 8.3121 22.4991L5.69511 22.1182C4.9338 22.0074 4.2733 21.5466 3.9283 20.8854L2.74238 18.6128C2.70348 18.5383 2.65241 18.4708 2.5906 18.4122L0.706529 16.6267C0.158426 16.1073 -0.0938679 15.3616 0.0316698 14.632L0.463135 12.124C0.477299 12.0417 0.477299 11.9583 0.463135 11.876L0.0316698 9.36796C-0.0938679 8.63835 0.158426 7.89265 0.706529 7.37324L2.5906 5.58777C2.65241 5.52919 2.70348 5.46169 2.74238 5.38714L3.9283 3.11454C4.27332 2.4534 4.9338 1.99254 5.69511 1.88173L8.31212 1.50081C8.39798 1.4883 8.48061 1.46252 8.55771 1.42418L10.908 0.255055C11.5918 -0.0850366 12.4083 -0.0850001 13.0919 0.255055L15.4423 1.42418C15.5194 1.46254 15.602 1.48832 15.6879 1.50083L18.3049 1.88175C19.0662 1.99256 19.7267 2.45343 20.0717 3.11456L21.2576 5.38716C21.2965 5.46171 21.3476 5.52923 21.4094 5.5878L23.2935 7.37326C23.8416 7.89269 24.0939 8.63838 23.9683 9.36799L23.5369 11.876C23.5227 11.9583 23.5227 12.0417 23.5369 12.124L23.9683 14.632C24.0939 15.3616 23.8416 16.1073 23.2935 16.6268L21.4094 18.4122C21.3476 18.4708 21.2965 18.5383 21.2576 18.6129L20.0717 20.8855C19.7267 21.5466 19.0662 22.0075 18.3049 22.1182L15.6879 22.4992C15.602 22.5117 15.5194 22.5375 15.4422 22.5758L13.0919 23.7449C12.7501 23.915 12.375 24 12 24ZM12 1.5192C11.8749 1.5192 11.7498 1.54757 11.6357 1.60428L9.28538 2.7734C9.05427 2.88836 8.80657 2.96565 8.54921 3.00312L5.93219 3.38404C5.67821 3.42101 5.45787 3.57475 5.34277 3.79532L4.15685 6.06792C4.04023 6.29141 3.88714 6.49376 3.70189 6.66934L1.81781 8.45481C1.63497 8.62809 1.5508 8.87685 1.59267 9.12024L2.02415 11.6283C2.06659 11.8749 2.06659 12.125 2.02415 12.3716L1.59267 14.8797C1.5508 15.1231 1.63495 15.3719 1.81781 15.5451L3.70187 17.3306C3.88714 17.5062 4.04023 17.7085 4.15685 17.932L5.34277 20.2046C5.45785 20.4252 5.67821 20.5789 5.93217 20.6159L8.54919 20.9968C8.80652 21.0343 9.05419 21.1116 9.28532 21.2265L11.6357 22.3957C11.8638 22.5091 12.1362 22.5091 12.3643 22.3957L14.7146 21.2265C14.9458 21.1116 15.1934 21.0343 15.4508 20.9968L18.0678 20.6159C18.3218 20.5789 18.5421 20.4252 18.6572 20.2046L19.8431 17.932C19.9598 17.7085 20.1128 17.5062 20.2981 17.3306L22.1822 15.5451C22.365 15.3719 22.4492 15.1231 22.4073 14.8797L21.9758 12.3717C21.9334 12.125 21.9334 11.8749 21.9758 11.6283L22.4073 9.12026C22.4492 8.87685 22.365 8.62809 22.1822 8.45481L20.2981 6.66934C20.1128 6.49374 19.9598 6.29141 19.8431 6.06792L18.6572 3.79532C18.5421 3.57475 18.3218 3.42101 18.0678 3.38404L15.4508 3.00312C15.1934 2.96565 14.9457 2.88836 14.7146 2.77339L12.3643 1.60426C12.2502 1.54755 12.1251 1.5192 12 1.5192Z" fill="#57A3FF"/>
<path d="M9.72198 17.2317L5.06104 12.7554L6.17981 11.681L9.72198 15.0828L17.8199 7.30566L18.9387 8.38011L9.72198 17.2317Z" fill="#57A3FF"/>
</svg>
