<svg width="32" height="32" viewBox="0 0 32 32" fill="none" xmlns="http://www.w3.org/2000/svg">
<g clip-path="url(#clip0_2481_13841)">
<path d="M4.15749 25.5896L8.39499 16.3114C8.43837 16.2161 8.46082 16.1127 8.46082 16.008C8.46082 15.9033 8.43837 15.7999 8.39499 15.7046L4.15749 6.42636C4.01164 6.10561 3.96875 5.74755 4.03474 5.40143C4.10072 5.05531 4.27234 4.73815 4.52597 4.49356C4.7796 4.24897 5.10279 4.08899 5.45107 4.03561C5.79936 3.98223 6.15563 4.03808 6.47087 4.19548L27.0557 14.4836C27.3387 14.6252 27.5767 14.8428 27.743 15.112C27.9093 15.3812 27.9974 15.6914 27.9974 16.0078C27.9974 16.3242 27.9093 16.6344 27.743 16.9036C27.5767 17.1728 27.3387 17.3904 27.0557 17.532L6.47087 27.8205C6.15563 27.9779 5.79936 28.0337 5.45107 27.9804C5.10279 27.927 4.7796 27.767 4.52597 27.5224C4.27234 27.2778 4.10072 26.9607 4.03474 26.6145C3.96875 26.2684 4.01164 25.9104 4.15749 25.5896Z" fill="url(#paint0_linear_2481_13841)"/>
<path d="M8.39499 16.3113L4.15749 25.5896C4.01164 25.9103 3.96875 26.2684 4.03474 26.6145C4.10072 26.9606 4.27234 27.2778 4.52597 27.5224C4.7796 27.767 5.10279 27.927 5.45107 27.9803C5.79936 28.0337 6.15563 27.9779 6.47087 27.8205L27.0557 17.532C27.3387 17.3904 27.5767 17.1728 27.743 16.9036C27.9093 16.6344 27.9974 16.3242 27.9974 16.0078C27.9974 15.6913 27.9093 15.3812 27.743 15.112C27.5767 14.8428 27.3387 14.6252 27.0557 14.4836C27.0557 14.4836 9.93887 22.6391 8.39499 16.3113Z" fill="url(#paint1_linear_2481_13841)"/>
<path d="M24.2265 15.1657L21.4346 13.7703C21.3456 13.7256 21.2781 13.6473 21.2468 13.5528C21.2156 13.4582 21.2231 13.3551 21.2679 13.2661C21.3127 13.1772 21.3909 13.1096 21.4855 13.0784C21.58 13.0471 21.6831 13.0547 21.7721 13.0995L24.564 14.4948C24.608 14.517 24.6473 14.5476 24.6795 14.5849C24.7117 14.6223 24.7362 14.6656 24.7517 14.7124C24.7672 14.7592 24.7733 14.8086 24.7697 14.8578C24.7661 14.907 24.7528 14.955 24.7307 14.999C24.7085 15.0431 24.6779 15.0823 24.6405 15.1145C24.6032 15.1468 24.5599 15.1713 24.5131 15.1868C24.4663 15.2023 24.4169 15.2084 24.3677 15.2048C24.3185 15.2011 24.2705 15.1879 24.2265 15.1657Z" fill="url(#paint2_linear_2481_13841)"/>
<path d="M10.11 8.10969L9.33224 7.72044C9.2878 7.69866 9.24811 7.6683 9.21545 7.63111C9.1828 7.59392 9.15783 7.55064 9.14199 7.50375C9.12614 7.45686 9.11974 7.4073 9.12314 7.35793C9.12654 7.30855 9.13968 7.26034 9.16181 7.21607C9.18393 7.1718 9.2146 7.13234 9.25204 7.09998C9.28949 7.06762 9.33297 7.04299 9.37998 7.02751C9.42698 7.01203 9.47659 7.00601 9.52594 7.0098C9.57529 7.01358 9.6234 7.0271 9.66749 7.04957L10.4452 7.43807C10.5343 7.48252 10.602 7.56052 10.6335 7.6549C10.665 7.74928 10.6577 7.8523 10.6132 7.94132C10.5688 8.03033 10.4908 8.09804 10.3964 8.12954C10.302 8.16105 10.199 8.15415 10.11 8.10969Z" fill="url(#paint3_linear_2481_13841)"/>
<path d="M8.01254 7.06121L6.06254 6.08621L6.16229 6.30483C6.20209 6.39505 6.20476 6.49732 6.16971 6.58949C6.13466 6.68166 6.06472 6.75632 5.97502 6.79729C5.88533 6.83827 5.7831 6.84227 5.69048 6.80842C5.59786 6.77457 5.5223 6.70561 5.48016 6.61646L5.18091 5.95796C5.1308 5.8488 5.11588 5.72677 5.1382 5.60876C5.16053 5.49075 5.219 5.38261 5.30552 5.2993C5.39203 5.216 5.50232 5.16166 5.62109 5.14382C5.73986 5.12597 5.86124 5.1455 5.96841 5.19971L8.35004 6.39033C8.39409 6.41249 8.43334 6.44311 8.46556 6.48044C8.49778 6.51777 8.52232 6.56108 8.5378 6.6079C8.55328 6.65472 8.55939 6.70413 8.55577 6.75331C8.55215 6.80248 8.53889 6.85047 8.51672 6.89452C8.49456 6.93857 8.46394 6.97782 8.42661 7.01004C8.38928 7.04226 8.34597 7.0668 8.29915 7.08228C8.25233 7.09776 8.20293 7.10387 8.15375 7.10025C8.10457 7.09663 8.05659 7.08337 8.01254 7.06121Z" fill="url(#paint4_linear_2481_13841)"/>
</g>
<defs>
<linearGradient id="paint0_linear_2481_13841" x1="7.58505" y1="4.01593" x2="25.2894" y2="5.01529" gradientUnits="userSpaceOnUse">
<stop stop-color="#9E74E2"/>
<stop offset="1" stop-color="#56A2FF"/>
</linearGradient>
<linearGradient id="paint1_linear_2481_13841" x1="7.58505" y1="14.4836" x2="25.1694" y2="16.2449" gradientUnits="userSpaceOnUse">
<stop stop-color="#9E74E2"/>
<stop offset="1" stop-color="#56A2FF"/>
</linearGradient>
<linearGradient id="paint2_linear_2481_13841" x1="21.4964" y1="13.2979" x2="23.1581" y2="15.9312" gradientUnits="userSpaceOnUse">
<stop stop-color="#73FFB9"/>
<stop offset="0.5" stop-color="#56A2FF"/>
<stop offset="1" stop-color="#9E74E2"/>
</linearGradient>
<linearGradient id="paint3_linear_2481_13841" x1="9.23828" y1="7.13538" x2="10.1855" y2="8.35621" gradientUnits="userSpaceOnUse">
<stop stop-color="#73FFB9"/>
<stop offset="0.5" stop-color="#56A2FF"/>
<stop offset="1" stop-color="#9E74E2"/>
</linearGradient>
<linearGradient id="paint4_linear_2481_13841" x1="5.38803" y1="5.3556" x2="6.87029" y2="7.84012" gradientUnits="userSpaceOnUse">
<stop stop-color="#73FFB9"/>
<stop offset="0.5" stop-color="#56A2FF"/>
<stop offset="1" stop-color="#9E74E2"/>
</linearGradient>
<clipPath id="clip0_2481_13841">
<rect width="24" height="24" fill="white" transform="translate(4 4.008)"/>
</clipPath>
</defs>
</svg>
