<svg width="48" height="49" viewBox="0 0 48 49" fill="none" xmlns="http://www.w3.org/2000/svg">
<rect y="0.71875" width="48" height="48" rx="8" fill="url(#paint0_linear_964_39262)" fill-opacity="0.1"/>
<path fill-rule="evenodd" clip-rule="evenodd" d="M20.7232 22.8556C20.7555 22.8542 20.9932 22.8251 20.9932 22.8492L21.1604 22.8955C21.1604 22.9465 21.2161 22.9397 21.2161 22.9639C21.2161 23.0047 21.2417 22.9931 21.2847 23.0282C21.2652 23.0425 21.3483 23.046 21.3319 23.0695C21.3501 23.1182 21.3922 23.0707 21.3704 23.2038C21.3823 23.2076 21.3824 23.3572 21.3833 23.37C21.3867 23.3876 21.4102 23.3966 21.3961 23.4945C21.3961 23.5029 21.409 23.5107 21.3961 23.519C21.3737 23.5332 21.4423 23.615 21.4047 23.7065C21.3975 23.7192 21.3259 23.9069 21.3276 23.9162C21.4885 23.9205 21.9175 24.0265 22.0648 24.0902C22.2088 24.1525 22.4933 24.1421 22.5234 24.2167C22.5881 24.3087 23.0832 24.3859 23.1792 24.6368C23.142 24.6505 23.057 24.6232 23.0035 24.613C23.0583 24.6683 22.9837 24.6475 22.9692 24.6845C22.9539 24.7233 23.2085 24.8123 22.712 24.7235C21.8282 24.6263 20.8912 24.6258 20.0204 24.8485C18.4012 25.3604 18.9562 26.7203 20.4791 26.7845C21.5448 26.8081 22.8486 26.9752 23.4535 28.0133C24.3284 29.5561 22.6854 30.8648 21.2805 30.9208C21.2667 31.1362 21.5097 31.4765 21.3748 31.6765C21.3064 31.9807 20.8058 31.9983 20.5648 31.9547C20.5571 31.9352 20.4404 31.9363 20.4619 31.8995C20.4698 31.886 20.4132 31.8706 20.4019 31.8206L20.3419 31.7771C20.3547 31.7673 20.3204 31.7583 20.299 31.7492L20.2947 31.7249C20.2406 31.6939 20.2447 31.6029 20.2562 31.5864L20.2305 31.2431C20.2184 31.0445 20.1687 31.175 20.2861 30.874C19.6361 30.6953 18.8557 30.46 18.5717 29.7527C18.751 29.7557 18.6638 29.7163 18.7346 29.7429C18.8293 29.7785 18.8133 29.7083 18.9232 29.7435C19.1911 29.8295 19.0659 29.677 19.459 29.8176C19.9315 29.9034 20.5247 29.9553 20.8819 29.8387C22.0587 29.7895 23.4975 28.7174 21.5977 28.0602C20.8739 27.8481 20.3356 28.0694 19.4676 27.7093C17.0427 26.6535 17.9534 24.0174 20.3505 23.8518C20.3395 23.4986 20.1002 23.3598 20.2862 23.0296C20.3019 22.9557 20.6442 22.8761 20.7105 22.857C20.7105 22.857 20.7146 22.8556 20.7232 22.8556ZM10.7323 16.3514C10.7323 16.3455 10.7553 16.2312 10.8138 16.2242L10.8909 16.1647C10.9076 16.146 10.8941 16.1021 11.0109 16.0962C11.4488 15.9509 11.7755 16.3116 12.0738 16.5723C12.0738 16.5744 12.0738 16.5785 12.0781 16.5785C12.6222 16.9525 13.431 17.4147 12.8196 18.1898C12.7083 18.25 12.7236 18.2307 12.5753 18.2822C12.5216 18.247 12.54 18.2417 12.5025 18.243C12.4271 18.2456 12.409 18.1784 12.3696 18.1948C12.3276 18.2124 12.3496 18.1779 12.3139 18.1905C12.3013 18.1759 12.2777 18.1802 12.2453 18.1871C11.6934 17.8286 11.2752 17.2695 10.8865 16.7247C10.872 16.7107 10.8468 16.7218 10.8737 16.6757C10.8877 16.6517 10.8078 16.5688 10.8137 16.4891C10.8153 16.4668 10.7677 16.4608 10.7537 16.4563C10.7537 16.4269 10.7822 16.419 10.7708 16.408C10.7708 16.3995 10.7665 16.3906 10.7665 16.382L10.7323 16.3514ZM15.9442 14.7485C15.9833 14.4208 16.0085 14.2604 16.0085 13.9312C15.9937 13.9168 16.0148 13.9106 16.047 13.8949C16.047 13.8871 16.0636 13.7791 16.107 13.7354C16.1354 13.7069 16.0452 13.6787 16.107 13.6655C16.1323 13.6597 16.1291 13.6528 16.1371 13.6256C16.0914 13.5888 16.2038 13.5531 16.2228 13.5444C16.2228 13.5444 16.2542 13.5299 16.2914 13.5613C16.2957 13.5607 16.3 13.5584 16.3 13.5584C16.3329 13.5594 16.3976 13.5532 16.4286 13.5424C16.5729 13.6083 16.9023 13.7917 16.8958 14.0011C16.9044 14.0088 16.9129 14.0158 16.8958 14.0249V14.0304C16.9724 14.1847 17.0371 14.7073 17.1059 14.928C17.3744 15.4989 17.0823 16.2656 16.4072 16.0983C16.3856 16.0673 16.2805 16.0739 16.3 16.0186C16.3069 15.9987 16.2377 15.9663 16.2271 15.8955L16.1842 15.8535C16.1842 15.8255 16.1615 15.836 16.1628 15.8305C16.1714 15.8136 16.1371 15.8018 16.1156 15.7886L16.107 15.7501C16.0197 15.6371 16.0692 15.5887 16.0428 15.4991C16.0231 15.3315 15.9813 14.9048 15.9442 14.7485ZM9.95223 21.5231C9.9803 21.6322 9.95672 21.6566 9.92227 21.7552C9.8789 21.7788 9.89506 21.8786 9.83655 21.8595C9.80903 21.8504 9.79232 21.9136 9.7551 21.9117C9.69848 21.909 9.68263 21.9646 9.67364 21.9649C9.64116 21.9662 9.65882 21.9895 9.64794 21.9846C9.63509 21.974 9.62223 22.0096 9.60504 22.03C9.58856 22.0368 9.54086 22.0522 9.52359 22.0663C8.99244 22.1303 8.37637 22.1081 7.84341 22.0042C7.82369 22.02 7.81336 21.9622 7.81336 21.9622L7.7148 21.9244C7.64241 21.8728 7.66701 21.8707 7.6119 21.9063C7.59281 21.9186 7.62349 21.8743 7.569 21.8483C7.45876 21.8743 7.51238 21.6688 7.51759 21.6029C7.47201 21.5004 7.73719 21.1635 7.84333 21.1267L7.96334 21.1002C7.96334 21.1002 7.99188 21.0741 7.99764 21.0954C7.99764 21.0995 8.0019 21.0989 8.0019 21.0961C8.11182 21.0532 8.43984 21.0163 8.51191 21.0207C9.0485 20.8907 9.8662 20.6578 9.95223 21.5231ZM39.4449 32.0078C36.6369 35.9892 31.1104 36.8526 26.7409 35.6435C27.9686 34.7113 28.9693 33.5068 29.6725 32.1112C29.6725 32.1719 29.8347 32.0983 29.8869 32.1203C30.0335 32.1821 30.3418 32.1773 30.3669 32.209C30.4128 32.2669 30.4253 32.2304 30.4827 32.2342C30.4983 32.2452 30.9525 32.2565 30.9842 32.2586C31.0037 32.4173 30.9716 33.252 31.0999 33.3569C31.0957 33.3582 31.0999 33.3603 31.0999 33.3603C31.1367 33.3772 31.0974 33.4003 31.1385 33.419C31.1729 33.4346 31.1486 33.5214 31.1985 33.5862C31.2452 33.6469 31.1948 33.6803 31.2413 33.7008C31.3548 33.7509 31.2876 33.7665 31.3571 33.7818C31.4056 33.7924 31.3728 33.8054 31.4 33.809C31.4343 33.8147 31.4428 33.8237 31.46 33.8328C32.1969 33.7451 32.2221 32.9546 32.1329 32.3208C32.7191 32.3977 33.3517 32.3442 33.9416 32.3507C33.9506 32.508 33.9149 32.965 33.993 33.0693L33.9973 33.1232C34.0187 33.1443 34.053 33.1644 34.0402 33.1861C34.0706 33.199 34.0458 33.2248 34.0831 33.2469C34.1163 33.2646 34.0918 33.3453 34.1431 33.4119C34.1833 33.4641 34.1352 33.5073 34.186 33.5251C34.2869 33.5607 34.2354 33.5907 34.2974 33.6042C34.3463 33.6149 34.3228 33.6289 34.3403 33.6316C34.3788 33.6371 34.3874 33.6462 34.4045 33.6545C35.1006 33.5707 35.1463 32.8788 35.0989 32.3285C35.6106 32.3679 35.9632 32.2597 36.4791 32.1605C36.5925 32.1622 36.65 32.0991 36.7362 32.109C36.9221 32.1301 36.8576 32.0296 37.0019 32.0056C37.0503 31.9975 37.0418 31.9365 37.0834 31.9343C37.123 31.9321 37.0776 31.9235 37.1562 31.8594C36.8119 31.0692 35.7132 31.1909 34.966 31.1247L34.9146 30.7878C34.9687 30.5517 34.5894 29.9958 34.3489 30.0795C34.2915 29.9963 34.1903 30.1026 34.1903 30.1026C34.1756 30.1341 34.2073 30.1923 34.156 30.2005C34.0905 30.211 34.1821 30.2596 34.1517 30.2976C34.0892 30.3759 34.0918 30.5079 34.066 30.5184C34.0203 30.4854 33.9998 31.1329 33.9846 31.1616C33.3418 31.2104 32.6726 31.2612 32.0258 31.268C31.9697 31.0408 32.0082 30.8299 31.9015 30.5773C31.85 30.511 31.5816 30.1805 31.52 30.1886C31.4767 30.1943 31.5525 30.2093 31.4343 30.1969C31.4215 30.1955 31.4172 30.1985 31.4129 30.2006L31.4086 30.2033C31.3533 30.162 31.3876 30.1494 31.2844 30.1963C31.214 30.2282 31.2489 30.2674 31.2458 30.2831C31.2318 30.3541 31.1771 30.3159 31.1901 30.3418C31.1986 30.3587 31.2227 30.4086 31.2072 30.4241C31.1535 30.4783 31.1525 30.6394 31.1215 30.6494C31.075 30.6643 31.1058 30.6543 31.0872 30.7304C31.0868 30.913 31.0542 31.128 31.0401 31.3183C30.65 31.3578 30.333 31.3181 29.96 31.5016C30.4743 30.3359 30.7843 28.7239 30.77 27.4469C31.7031 27.8043 32.8695 27.6834 33.8303 27.4777C35.3775 27.9206 39.6444 30.1304 39.4449 32.0078ZM25.4765 35.2118C24.1698 36.0203 22.7353 36.4457 21.2204 36.551C21.278 35.964 21.1092 35.3539 21.049 34.7678C21.0351 34.759 21.0727 34.7614 21.049 34.7336L21.0404 34.6686C22.4843 34.6376 24.0026 34.0239 25.1251 33.1047C25.4558 33.66 26.0608 33.998 26.5223 34.4274C26.5408 34.4267 26.52 34.4425 26.5352 34.4497C26.2008 34.7293 25.8451 34.9844 25.4765 35.2118ZM18.6402 36.2959C17.113 35.8942 15.6838 35.0794 14.5384 33.9225C14.9958 33.6364 15.5139 33.1247 15.8885 32.7159C17.0221 33.7978 18.6024 34.5397 20.1617 34.6454C20.0623 35.2475 20.0396 35.9085 20.0846 36.5336C19.6003 36.4882 19.1116 36.4414 18.6402 36.2959ZM12.7811 31.4408C13.0939 32.0847 13.4711 32.6943 13.9212 33.2472C14.287 32.847 14.6847 32.1617 15.1298 31.8653C14.1968 30.623 13.6734 29.1618 13.634 27.5959C13.0335 27.6173 12.4332 27.8544 11.8552 27.7547C11.9194 29.0324 12.2214 30.2972 12.7811 31.4408ZM11.8938 26.4026C12.1084 24.3002 12.9895 22.3429 14.354 20.7738C14.5697 21.0289 14.7959 21.4919 15.0484 21.6896C15.1729 21.8232 15.5218 22.182 15.6527 22.2936C14.5138 23.4748 13.842 25.0032 13.664 26.6689C13.0887 26.551 12.4705 26.5608 11.881 26.5914L11.8938 26.4026ZM15.3142 19.8461L14.9627 20.1473C14.981 20.1641 15.1074 20.2466 15.1042 20.2628C15.3444 20.4096 15.4377 20.589 15.6742 20.7339C15.8296 20.8922 16.0947 21.072 16.2614 21.2358L16.4886 21.5622C17.7238 20.7337 19.369 20.1048 20.8133 20.664C8.29996 23.0854 18.1284 40.8911 26.1243 30.342C28.4394 26.1497 25.3039 21.0665 20.8133 20.7717C20.8803 20.7443 21.1265 20.7325 21.2119 20.7325C21.0665 20.7012 21.1861 20.6865 21.1861 20.6865C21.199 20.6752 21.2162 20.6647 21.2333 20.6534C21.1961 20.6256 20.9433 20.6066 21.109 20.5835C22.7298 20.4769 24.4482 21.0981 25.6523 22.2139L25.6651 22.172C25.6822 22.1678 25.6737 22.1293 25.6737 22.1027L25.6994 22.067C25.7061 21.9947 25.8202 21.8783 25.858 21.8602C25.8895 21.8372 26.2479 21.4269 26.2995 21.4023C26.5137 21.1024 26.9404 20.9247 27.2081 20.6745C25.7006 19.0513 23.5696 18.0515 21.3961 17.8495L21.4132 17.8635C21.4543 17.8793 21.4152 17.898 21.4518 17.9125C21.4518 17.9488 21.4695 17.9384 21.499 17.9677C21.6331 18.6373 21.5581 19.431 21.4561 20.1097C21.4505 20.1248 21.4862 20.1403 21.4304 20.155C21.4091 20.1606 21.402 20.2188 21.4004 20.2228C21.3404 20.3837 21.3196 20.3366 21.3618 20.4094C21.3737 20.4299 21.319 20.4003 21.3061 20.4584C21.3036 20.4694 21.3375 20.5028 21.2675 20.5296C21.1604 20.5706 21.1969 20.5542 21.1433 20.524L21.139 20.5261C20.9863 20.5998 20.7616 20.3209 20.6503 20.2144C20.5293 19.9172 20.5381 19.6109 20.5131 19.3076C20.4306 18.8288 20.1822 17.9162 20.7146 17.6446C18.7448 17.9716 16.9148 18.5547 15.3142 19.8461ZM21.3318 17.6929L21.3918 17.7063C21.3747 17.7056 21.3532 17.707 21.336 17.707C21.3361 17.7021 21.3318 17.6971 21.3318 17.6929ZM21.3018 17.5972C21.3447 17.6036 21.3919 17.6111 21.4218 17.6279L21.3318 17.6615C21.3318 17.6129 21.2691 17.6341 21.2417 17.5924C21.2589 17.5944 21.2804 17.5958 21.3018 17.5972ZM24.5164 17.9531C24.8862 16.8519 25.4647 15.7477 26.3165 14.8778C27.3462 16.8623 29.1469 18.2905 30.6883 19.8586C30.1751 20.4276 29.5163 21.1119 29.1967 21.8915C28.0599 20.059 26.464 18.7829 24.4606 18.0683C24.4778 18.0292 24.4949 17.9907 24.5164 17.9531ZM27.0709 14.2333C28.3425 13.2076 29.9637 12.6593 31.597 12.7322C31.2567 14.225 32.2175 16.0053 33.2086 17.0574C32.6555 17.7073 32.0221 18.3947 31.4513 19.0274C29.964 17.5016 28.3881 15.7584 26.6895 14.5358C26.8785 14.4449 26.9306 14.3361 27.0709 14.2333ZM32.6728 12.8757L32.2527 12.796C32.35 13.0529 32.4022 13.3245 32.5056 13.4916C32.9399 14.4492 33.2844 15.4306 33.9843 16.2137C34.5372 15.7198 35.2364 14.8974 35.9131 14.6128C34.9889 13.7494 33.9008 13.1454 32.6728 12.8757ZM36.8646 15.6858C37.55 16.6396 37.9388 17.6831 38.099 18.8715C36.9143 18.4576 35.7386 18.0038 34.8244 17.0553C35.4262 16.4849 35.9355 15.8005 36.4017 15.1162L36.8646 15.6858ZM38.1676 20.0733C38.1719 19.8496 38.1633 19.626 38.1505 19.4029C36.6819 19.6821 35.1904 18.7419 34.0573 17.8748C33.4116 18.5047 32.8747 19.1749 32.1971 19.758C33.5518 21.2628 35.1864 22.9364 36.4189 24.5005C37.4681 23.3007 38.1247 21.6824 38.1676 20.0733ZM27.2252 22.0447C27.3603 21.8226 27.63 21.5765 27.7609 21.363C29.0434 22.94 29.7549 24.9149 29.8269 26.9402C29.2132 26.8337 28.5807 27.0576 27.9796 27.1016L27.8253 27.1317C27.7836 25.6228 27.2181 24.0956 26.3123 22.9408C26.7462 22.736 26.9364 22.4156 27.2252 22.0447ZM27.3752 33.6485C28.7916 32.0998 29.6251 30.1945 29.8011 28.0895C29.6008 28.0994 28.9123 28.1119 28.7253 28.1404C28.443 28.09 28.0815 28.0215 27.8167 28.009C27.8167 28.0118 27.8124 28.0125 27.8081 28.0118C27.681 29.6652 27.0296 31.1556 25.9179 32.3663C25.9179 32.3686 25.9222 32.3704 25.9222 32.3726C26.0993 32.4389 26.4229 32.8662 26.578 33.0004C26.81 33.1657 27.0206 33.6025 27.2038 33.8288L27.3752 33.6485ZM35.7502 25.1779C35.8745 25.059 35.9989 24.9396 36.1188 24.8179C34.3464 23.7579 32.9111 21.905 31.3827 20.5312C30.933 20.9675 30.2666 21.6398 29.7625 21.9768C29.6717 22.0255 29.6229 22.2036 29.5568 22.183C29.5179 22.171 29.4239 22.2689 29.4239 22.2689C30.2456 23.7082 30.7516 25.482 30.7654 27.161C32.6396 26.9987 34.3763 26.5383 35.7502 25.1779ZM40.3321 30.9347C39.0539 28.9994 36.8125 27.553 34.5715 27.2247C40.542 24.7092 40.9232 16.0112 35.3344 12.8092C31.2176 9.90835 24.3343 13.2122 24.345 17.8222C24.3795 17.8586 24.3506 17.9807 24.4136 17.8566L24.3879 18.0439C23.3454 17.7163 21.7971 17.3597 20.749 17.6236C15.7616 16.5784 11.0863 21.4226 10.7367 26.3957C9.86123 34.974 19.4188 40.8128 26.3123 35.959C29.6187 38.2307 34.338 37.4858 37.5461 35.3313C38.8062 34.3987 41.1455 32.7845 40.3321 30.9347Z" fill="url(#paint1_linear_964_39262)"/>
<defs>
<linearGradient id="paint0_linear_964_39262" x1="3.2" y1="4.71875" x2="44.8" y2="45.5188" gradientUnits="userSpaceOnUse">
<stop stop-color="#92FF94"/>
<stop offset="0.5" stop-color="#56A2FF"/>
<stop offset="1" stop-color="#9E74E2"/>
</linearGradient>
<linearGradient id="paint1_linear_964_39262" x1="10.0016" y1="14.6076" x2="31.8732" y2="41.2595" gradientUnits="userSpaceOnUse">
<stop stop-color="#73FFB9"/>
<stop offset="0.5" stop-color="#56A2FF"/>
<stop offset="1" stop-color="#9E74E2"/>
</linearGradient>
</defs>
</svg>
