<svg width="32" height="33" viewBox="0 0 32 33" fill="none" xmlns="http://www.w3.org/2000/svg">
<path d="M13.9449 9.07567L11.1498 8.37689C9.32727 7.92124 7.32269 8.37011 6.31899 9.95818C4.52302 12.7998 3.75942 16.4559 3.53668 19.8114C3.29564 23.4424 7.06069 25.5627 10.4055 24.1292L14.2007 22.5027C15.6949 21.8623 17.3935 21.9028 18.8555 22.6137L21.469 23.8844C24.6988 25.4549 28.5926 23.5694 28.3283 19.9876C28.0129 15.7132 26.528 12.1617 24.9624 9.82515C23.9633 8.33409 22.0899 7.87675 20.3374 8.26447L16.5128 9.11065C15.6657 9.29808 14.7866 9.2861 13.9449 9.07567Z" stroke="#A0A0A0" stroke-width="1.6"/>
<circle cx="10.7626" cy="16.4022" r="2.1316" stroke="#A0A0A0" stroke-width="1.6"/>
<path d="M21.2062 14.1787V18.6254" stroke="#A0A0A0" stroke-width="1.6" stroke-linecap="round"/>
<path d="M23.4296 16.4019L18.983 16.4019" stroke="#A0A0A0" stroke-width="1.6" stroke-linecap="round"/>
</svg>
