<svg width="33" height="33" viewBox="0 0 33 33" fill="none" xmlns="http://www.w3.org/2000/svg">
<path d="M14.0159 8.98704L11.2208 8.28827C9.39825 7.83261 7.39367 8.28149 6.38997 9.86956C4.594 12.7112 3.83041 16.3672 3.60766 19.7228C3.36663 23.3538 7.13168 25.474 10.4764 24.0406L14.2717 22.414C15.7659 21.7737 17.4645 21.8142 18.9265 22.525L21.5399 23.7958C24.7698 25.3663 28.6636 23.4807 28.3993 19.899C28.0839 15.6246 26.599 12.0731 25.0334 9.73653C24.0343 8.24546 22.1609 7.78812 20.4084 8.17585L16.5838 9.02203C15.7367 9.20946 14.8576 9.19748 14.0159 8.98704Z" stroke="#57A3FF" stroke-width="1.6"/>
<circle cx="10.8336" cy="16.3135" r="2.1316" stroke="#57A3FF" stroke-width="1.6"/>
<path d="M21.2772 14.0898V18.5365" stroke="#57A3FF" stroke-width="1.6" stroke-linecap="round"/>
<path d="M23.5006 16.313L19.054 16.313" stroke="#57A3FF" stroke-width="1.6" stroke-linecap="round"/>
</svg>
