<svg width="26" height="26" viewBox="0 0 26 26" fill="none" xmlns="http://www.w3.org/2000/svg">
<path d="M13 25.353C12.6093 25.353 12.2187 25.2645 11.8625 25.0873L9.41428 23.8695C9.33397 23.8295 9.24788 23.8027 9.15844 23.7896L6.4324 23.3929C5.63938 23.2774 4.95135 22.7974 4.59198 22.1087L3.35664 19.7414C3.31612 19.6637 3.26293 19.5934 3.19854 19.5324L1.23597 17.6725C0.665027 17.1315 0.402221 16.3547 0.532989 15.5947L0.982432 12.9822C0.997187 12.8965 0.997187 12.8096 0.982432 12.7238L0.532989 10.1113C0.402221 9.35131 0.665027 8.57454 1.23597 8.03348L3.19854 6.17362C3.26293 6.1126 3.31612 6.04229 3.35664 5.96463L4.59198 3.59734C4.95137 2.90865 5.63938 2.42859 6.4324 2.31316L9.15846 1.91637C9.2479 1.90334 9.33397 1.87649 9.41428 1.83654L11.8626 0.61871C12.5748 0.264448 13.4253 0.264486 14.1374 0.61871L16.5857 1.83654C16.666 1.8765 16.7521 1.90336 16.8416 1.91639L19.5676 2.31318C20.3606 2.42861 21.0486 2.90869 21.408 3.59736L22.6434 5.96465C22.6839 6.04231 22.7371 6.11264 22.8015 6.17366L24.764 8.0335C25.335 8.57458 25.5978 9.35134 25.467 10.1114L25.0176 12.7239C25.0028 12.8096 25.0028 12.8965 25.0176 12.9822L25.467 15.5947C25.5978 16.3547 25.335 17.1315 24.764 17.6726L22.8015 19.5324C22.7371 19.5934 22.6839 19.6638 22.6434 19.7414L21.408 22.1087C21.0486 22.7974 20.3606 23.2775 19.5676 23.3929L16.8415 23.7897C16.7521 23.8027 16.666 23.8295 16.5857 23.8695L14.1374 25.0873C13.7813 25.2645 13.3907 25.353 13 25.353ZM13 1.93552C12.8697 1.93552 12.7393 1.96508 12.6206 2.02416L10.1723 3.24199C9.93153 3.36174 9.67352 3.44225 9.40542 3.48128L6.67936 3.87807C6.4148 3.91658 6.18529 4.07673 6.06539 4.30649L4.83005 6.67378C4.70857 6.90658 4.54911 7.11736 4.35613 7.30025L2.39355 9.16012C2.2031 9.34062 2.11542 9.59974 2.15903 9.85328L2.60849 12.4658C2.6527 12.7227 2.6527 12.9833 2.60849 13.2402L2.15903 15.8527C2.11542 16.1062 2.20308 16.3654 2.39355 16.5459L4.35611 18.4058C4.54911 18.5886 4.70857 18.7994 4.83005 19.0322L6.06539 21.3995C6.18527 21.6293 6.4148 21.7894 6.67935 21.8279L9.40541 22.2247C9.67346 22.2637 9.93145 22.3442 10.1722 22.464L12.6205 23.6818C12.8581 23.8 13.1418 23.8 13.3794 23.6818L15.8277 22.464C16.0685 22.3442 16.3265 22.2637 16.5945 22.2247L19.3206 21.8279C19.5852 21.7894 19.8147 21.6293 19.9346 21.3995L21.1699 19.0322C21.2914 18.7994 21.4509 18.5886 21.6439 18.4057L23.6064 16.5459C23.7969 16.3654 23.8846 16.1062 23.8409 15.8527L23.3915 13.2402C23.3473 12.9833 23.3473 12.7227 23.3915 12.4658L23.8409 9.8533C23.8846 9.59974 23.7969 9.34062 23.6064 9.16012L21.6439 7.30025C21.4509 7.11734 21.2914 6.90658 21.1699 6.67378L19.9346 4.30649C19.8147 4.07673 19.5852 3.91658 19.3206 3.87807L16.5946 3.48128C16.3265 3.44225 16.0685 3.36174 15.8277 3.24197L13.3795 2.02414C13.2606 1.96506 13.1303 1.93552 13 1.93552Z" fill="url(#paint0_linear_2073_51152)"/>
<path d="M10.6271 18.3027L5.77197 13.64L6.93736 12.5207L10.6271 16.0643L19.0625 7.96313L20.2279 9.08235L10.6271 18.3027Z" fill="url(#paint1_linear_2073_51152)"/>
<defs>
<linearGradient id="paint0_linear_2073_51152" x1="1.28335" y1="14.0041" x2="24.6662" y2="14.005" gradientUnits="userSpaceOnUse">
<stop stop-color="#9E74E2"/>
<stop offset="0.998333" stop-color="#037ED4"/>
</linearGradient>
<linearGradient id="paint1_linear_2073_51152" x1="6.22494" y1="13.609" x2="19.7458" y2="13.6097" gradientUnits="userSpaceOnUse">
<stop stop-color="#9E74E2"/>
<stop offset="0.998333" stop-color="#037ED4"/>
</linearGradient>
</defs>
</svg>
