<svg width="28" height="28" viewBox="0 0 28 28" fill="none" xmlns="http://www.w3.org/2000/svg">
<path d="M10.7478 1.00917V0.359619H10.0983V1.00917H10.7478ZM10.7478 12.3785H10.0983V13.0292L10.749 13.028L10.7478 12.3785ZM26.982 1.00917H27.6315V0.359619H26.982V1.00917ZM26.982 17.2253V17.8749H27.6315V17.2253H26.982ZM20.4955 17.2253H19.8459V17.8749H20.4955V17.2253ZM20.4955 12.3605H21.145V11.7097L20.4943 11.7109L20.4955 12.3605ZM17.2523 8.25237H16.6028V8.90192H17.2523V8.25237ZM17.2523 5.09924V4.4497H16.6028V5.09924H17.2523ZM20.4955 8.25237V8.90192H21.145V8.25237H20.4955ZM20.4955 5.09924H21.145V4.4497H20.4955V5.09924ZM7.5046 15.5856H6.85505V16.2352H7.5046V15.5856ZM7.5046 10.7929H8.15414V10.1433H7.5046V10.7929ZM17.2523 15.5856H17.9018V14.9361H17.2523V15.5856ZM17.2523 26.991V27.6406H17.9018V26.991H17.2523ZM1.00013 26.991H0.350586V27.6406H1.00013V26.991ZM1.00013 10.7929V10.1433H0.350586V10.7929H1.00013ZM7.5046 22.8829H6.85505V23.5324H7.5046V22.8829ZM7.5046 19.6757V19.0261H6.85505V19.6757H7.5046ZM10.6758 22.8829V23.5324H11.3253V22.8829H10.6758ZM10.6758 19.6757H11.3253V19.0261H10.6758V19.6757ZM1.00013 1.00917V0.359619H0.350586V1.00917H1.00013ZM7.52262 1.00917H8.17216V0.359619H7.52262V1.00917ZM1.00013 7.53166H0.350586V8.18121H1.00013V7.53166ZM7.52262 7.53166V8.18121H8.17216V7.53166H7.52262ZM27 20.4685H27.6496V19.819H27V20.4685ZM20.4776 20.4685V19.819H19.828V20.4685H20.4776ZM27 26.991V27.6406H27.6496V26.991H27ZM20.4776 26.991H19.828V27.6406H20.4776V26.991ZM10.0983 1.00917V12.3785H11.3974V1.00917H10.0983ZM26.982 0.359619H10.7478V1.65871H26.982V0.359619ZM27.6315 17.2253V1.00917H26.3324V17.2253H27.6315ZM20.4955 17.8749H26.982V16.5758H20.4955V17.8749ZM19.8459 12.3605V17.2253H21.145V12.3605H19.8459ZM10.749 13.028L20.4968 13.01L20.4943 11.7109L10.7466 11.7289L10.749 13.028ZM17.9018 8.25237V5.09924H16.6028V8.25237H17.9018ZM20.4955 7.60283H17.2523V8.90192H20.4955V7.60283ZM19.8459 5.09924V8.25237H21.145V5.09924H19.8459ZM17.2523 5.74879H20.4955V4.4497H17.2523V5.74879ZM8.15414 15.5856V10.7929H6.85505V15.5856H8.15414ZM17.2523 14.9361H7.5046V16.2352H17.2523V14.9361ZM17.9018 26.991V15.5856H16.6028V26.991H17.9018ZM1.00013 27.6406H17.2523V26.3415H1.00013V27.6406ZM0.350586 10.7929V26.991H1.64968V10.7929H0.350586ZM7.5046 10.1433H1.00013V11.4424H7.5046V10.1433ZM8.15414 22.8829V19.6757H6.85505V22.8829H8.15414ZM10.6758 22.2334H7.5046V23.5324H10.6758V22.2334ZM10.0262 19.6757V22.8829H11.3253V19.6757H10.0262ZM7.5046 20.3252H10.6758V19.0261H7.5046V20.3252ZM1.00013 1.65871H7.52262V0.359619H1.00013V1.65871ZM1.64968 7.53166V1.00917H0.350586V7.53166H1.64968ZM7.52262 6.88212H1.00013V8.18121H7.52262V6.88212ZM6.87307 1.00917V7.53166H8.17216V1.00917H6.87307ZM27 19.819H20.4776V21.1181H27V19.819ZM27.6496 26.991V20.4685H26.3505V26.991H27.6496ZM20.4776 27.6406H27V26.3415H20.4776V27.6406ZM19.828 20.4685V26.991H21.1271V20.4685H19.828Z" fill="#B0B0B0"/>
<path d="M10.7478 0.359619V1.00917H10.0983M10.7478 0.359619H10.0983V1.00917M10.7478 0.359619H26.982M10.7478 0.359619V1.65871H26.982V0.359619M10.0983 1.00917V12.3785M10.0983 1.00917H11.3974V12.3785H10.0983M10.0983 12.3785H10.7478L10.749 13.028M10.0983 12.3785V13.0292L10.749 13.028M10.749 13.028L20.4968 13.01L20.4943 11.7109M10.749 13.028L10.7466 11.7289L20.4943 11.7109M27.6315 1.00917H26.982V0.359619M27.6315 1.00917V0.359619H26.982M27.6315 1.00917V17.2253M27.6315 1.00917H26.3324V17.2253H27.6315M26.982 17.8749V17.2253H27.6315M26.982 17.8749H27.6315V17.2253M26.982 17.8749H20.4955M26.982 17.8749V16.5758H20.4955V17.8749M19.8459 17.2253H20.4955V17.8749M19.8459 17.2253V17.8749H20.4955M19.8459 17.2253V12.3605H21.145M19.8459 17.2253H21.145V12.3605M21.145 12.3605H20.4955L20.4943 11.7109M21.145 12.3605V11.7097L20.4943 11.7109M16.6028 8.25237H17.2523V8.90192M16.6028 8.25237V8.90192H17.2523M16.6028 8.25237V5.09924M16.6028 8.25237H17.9018V5.09924H16.6028M17.2523 8.90192V7.60283H20.4955V8.90192M17.2523 8.90192H20.4955M17.2523 4.4497V5.09924H16.6028M17.2523 4.4497H16.6028V5.09924M17.2523 4.4497H20.4955M17.2523 4.4497V5.74879H20.4955V4.4497M20.4955 8.90192V8.25237H21.145M20.4955 8.90192H21.145V8.25237M21.145 8.25237H19.8459V5.09924H21.145M21.145 8.25237V5.09924M21.145 5.09924H20.4955V4.4497M21.145 5.09924V4.4497H20.4955M6.85505 15.5856H7.5046V16.2352M6.85505 15.5856V16.2352H7.5046M6.85505 15.5856V10.7929H8.15414M6.85505 15.5856H8.15414V10.7929M7.5046 16.2352V14.9361H17.2523M7.5046 16.2352H17.2523V14.9361M8.15414 10.7929H7.5046V10.1433M8.15414 10.7929V10.1433H7.5046M7.5046 10.1433H1.00013M7.5046 10.1433V11.4424H1.00013V10.1433M17.9018 15.5856H17.2523V14.9361M17.9018 15.5856V14.9361H17.2523M17.9018 15.5856V26.991M17.9018 15.5856H16.6028V26.991H17.9018M17.2523 27.6406V26.991H17.9018M17.2523 27.6406H17.9018V26.991M17.2523 27.6406H1.00013M17.2523 27.6406V26.3415H1.00013V27.6406M0.350586 26.991H1.00013V27.6406M0.350586 26.991V27.6406H1.00013M0.350586 26.991V10.7929M0.350586 26.991H1.64968V10.7929H0.350586M1.00013 10.1433V10.7929H0.350586M1.00013 10.1433H0.350586V10.7929M6.85505 22.8829H7.5046V23.5324M6.85505 22.8829V23.5324H7.5046M6.85505 22.8829V19.6757M6.85505 22.8829H8.15414V19.6757H6.85505M7.5046 23.5324V22.2334H10.6758V23.5324M7.5046 23.5324H10.6758M7.5046 19.0261V19.6757H6.85505M7.5046 19.0261H6.85505V19.6757M7.5046 19.0261H10.6758M7.5046 19.0261V20.3252H10.6758V19.0261M10.6758 23.5324V22.8829H11.3253M10.6758 23.5324H11.3253V22.8829M11.3253 22.8829H10.0262V19.6757H11.3253M11.3253 22.8829V19.6757M11.3253 19.6757H10.6758V19.0261M11.3253 19.6757V19.0261H10.6758M1.00013 0.359619V1.00917H0.350586M1.00013 0.359619H0.350586V1.00917M1.00013 0.359619H7.52262M1.00013 0.359619V1.65871H7.52262V0.359619M0.350586 1.00917H1.64968V7.53166H0.350586M0.350586 1.00917V7.53166M8.17216 1.00917H7.52262V0.359619M8.17216 1.00917V0.359619H7.52262M8.17216 1.00917V7.53166M8.17216 1.00917H6.87307V7.53166H8.17216M0.350586 7.53166H1.00013V8.18121M0.350586 7.53166V8.18121H1.00013M1.00013 8.18121V6.88212H7.52262V8.18121M1.00013 8.18121H7.52262M7.52262 8.18121V7.53166H8.17216M7.52262 8.18121H8.17216V7.53166M27.6496 20.4685H27V19.819M27.6496 20.4685V19.819H27M27.6496 20.4685V26.991M27.6496 20.4685H26.3505V26.991H27.6496M27 19.819H20.4776M27 19.819V21.1181H20.4776V19.819M20.4776 19.819V20.4685H19.828M20.4776 19.819H19.828V20.4685M19.828 20.4685V26.991M19.828 20.4685H21.1271V26.991H19.828M27 27.6406V26.991H27.6496M27 27.6406H27.6496V26.991M27 27.6406H20.4776M27 27.6406V26.3415H20.4776V27.6406M19.828 26.991H20.4776V27.6406M19.828 26.991V27.6406H20.4776" stroke="#B0B0B0"/>
</svg>
