<svg width="33" height="33" viewBox="0 0 33 33" fill="none" xmlns="http://www.w3.org/2000/svg">
<path d="M22.4723 28.7051H9.73969C6.72695 28.7051 4.28598 26.2531 4.28598 23.2404V15.0928C4.28598 13.5974 5.20959 11.7172 6.39709 10.7936L12.3236 6.17555C14.1049 4.79014 16.9527 4.72416 18.7999 6.02162L25.595 10.7826C26.9035 11.6952 27.926 13.6524 27.926 15.2467V23.2514C27.926 26.2531 25.4851 28.7051 22.4723 28.7051ZM13.3352 7.47301L7.40867 12.0911C6.628 12.7068 5.93529 14.1032 5.93529 15.0928V23.2404C5.93529 25.3405 7.63957 27.0558 9.73969 27.0558H22.4723C24.5725 27.0558 26.2767 25.3515 26.2767 23.2514V15.2467C26.2767 14.1912 25.5181 12.7288 24.6494 12.1351L17.8543 7.37405C16.6008 6.49442 14.5337 6.5384 13.3352 7.47301Z" fill="#A0A0A0"/>
<path d="M16.1061 24.3063C15.6553 24.3063 15.2814 23.9325 15.2814 23.4817V20.1831C15.2814 19.7322 15.6553 19.3584 16.1061 19.3584C16.5569 19.3584 16.9307 19.7322 16.9307 20.1831V23.4817C16.9307 23.9325 16.5569 24.3063 16.1061 24.3063Z" fill="#A0A0A0"/>
</svg>
