<svg width="32" height="33" viewBox="0 0 32 33" fill="none" xmlns="http://www.w3.org/2000/svg">
<path d="M22.3663 28.7385H9.63364C6.62091 28.7385 4.17993 26.2866 4.17993 23.2738V15.1263C4.17993 13.6309 5.10354 11.7507 6.29104 10.8271L12.2176 6.209C13.9988 4.82358 16.8466 4.75761 18.6938 6.05507L25.489 10.8161C26.7974 11.7287 27.82 13.6859 27.82 15.2802V23.2848C27.82 26.2866 25.379 28.7385 22.3663 28.7385ZM13.2291 7.50646L7.30262 12.1245C6.52195 12.7403 5.82924 14.1367 5.82924 15.1263V23.2738C5.82924 25.374 7.53352 27.0892 9.63364 27.0892H22.3663C24.4664 27.0892 26.1707 25.3849 26.1707 23.2848V15.2802C26.1707 14.2246 25.412 12.7622 24.5434 12.1685L17.7482 7.4075C16.4948 6.52787 14.4276 6.57185 13.2291 7.50646Z" fill="#57A3FF"/>
<path d="M16.0001 24.3403C15.5493 24.3403 15.1754 23.9664 15.1754 23.5156V20.217C15.1754 19.7662 15.5493 19.3923 16.0001 19.3923C16.4509 19.3923 16.8247 19.7662 16.8247 20.217V23.5156C16.8247 23.9664 16.4509 24.3403 16.0001 24.3403Z" fill="#57A3FF"/>
</svg>
