<svg width="24" height="24" viewBox="0 0 24 24" fill="none" xmlns="http://www.w3.org/2000/svg">
<path d="M15.525 9.18082H17.2871C17.7544 9.18082 18.2026 9.36647 18.533 9.69692C18.8635 10.0274 19.0491 10.4756 19.0491 10.9429V19.4008C19.0491 19.8681 18.8635 20.3163 18.533 20.6467C18.2026 20.9772 17.7544 21.1628 17.2871 21.1628H6.7147C6.24737 21.1628 5.79918 20.9772 5.46873 20.6467C5.13828 20.3163 4.95264 19.8681 4.95264 19.4008V10.9429C4.95264 10.4756 5.13828 10.0274 5.46873 9.69692C5.79918 9.36647 6.24737 9.18082 6.7147 9.18082H8.47676M15.525 6.36152L12.0009 2.8374M12.0009 2.8374L8.47676 6.36152M12.0009 2.8374V14.8635" stroke="#B0B0B0" stroke-width="1.6" stroke-linecap="round" stroke-linejoin="round"/>
</svg>
