<svg width="32" height="33" viewBox="0 0 32 33" fill="none" xmlns="http://www.w3.org/2000/svg">
<path d="M3.68312 13.9125C3.68312 12.9351 4.47543 12.1428 5.45279 12.1428H10.0892C11.0665 12.1428 11.8588 12.9351 11.8588 13.9124V25.2902H5.45279C4.47543 25.2902 3.68312 24.4979 3.68312 23.5205V13.9125Z" stroke="#E0E0E0" stroke-width="1.6"/>
<path d="M11.9141 8.54526C11.9141 7.5679 12.7064 6.77559 13.6838 6.77559H18.3201C19.2975 6.77559 20.0898 7.5679 20.0898 8.54526V25.2904H11.9141V8.54526Z" stroke="#E0E0E0" stroke-width="1.6"/>
<path d="M20.1411 17.4496C20.1411 16.4722 20.9334 15.6799 21.9108 15.6799H26.5472C27.5245 15.6799 28.3168 16.4722 28.3168 17.4496V23.5213C28.3168 24.4987 27.5245 25.291 26.5472 25.291H20.1411V17.4496Z" stroke="#E0E0E0" stroke-width="1.6"/>
</svg>
