<svg width="33" height="33" viewBox="0 0 33 33" fill="none" xmlns="http://www.w3.org/2000/svg">
<path d="M3.78914 14.764C3.78914 13.7866 4.58145 12.9943 5.55881 12.9943H10.1952C11.1725 12.9943 11.9649 13.7866 11.9649 14.764V26.1418H5.55881C4.58145 26.1418 3.78914 25.3495 3.78914 24.3721V14.764Z" stroke="#A0A0A0" stroke-width="1.6"/>
<path d="M12.0201 9.39682C12.0201 8.41946 12.8124 7.62715 13.7898 7.62715H18.4261C19.4035 7.62715 20.1958 8.41946 20.1958 9.39682V26.142H12.0201V9.39682Z" stroke="#A0A0A0" stroke-width="1.6"/>
<path d="M20.2471 18.3001C20.2471 17.3228 21.0395 16.5305 22.0168 16.5305H26.6532C27.6305 16.5305 28.4229 17.3228 28.4229 18.3001V24.3719C28.4229 25.3493 27.6305 26.1416 26.6532 26.1416H20.2471V18.3001Z" stroke="#A0A0A0" stroke-width="1.6"/>
</svg>
