<svg width="318" height="318" viewBox="0 0 318 318" fill="none" xmlns="http://www.w3.org/2000/svg">
<g clip-path="url(#clip0_338_2)">
<path d="M2.17188 63.1454C2.17188 39.6657 2.17188 27.9258 9.46609 20.6316C16.7603 13.3374 28.5002 13.3374 51.9799 13.3374H254.364C277.844 13.3374 289.583 13.3374 296.878 20.6316C304.172 27.9258 304.172 39.6657 304.172 63.1454V265.529C304.172 289.009 304.172 300.749 296.878 308.043C289.583 315.337 277.844 315.337 254.364 315.337H51.9799C28.5002 315.337 16.7603 315.337 9.46609 308.043C2.17188 300.749 2.17188 289.009 2.17188 265.529V63.1454Z" fill="#0A0C1A"/>
<g clip-path="url(#clip1_338_2)">
<path d="M154.534 224.169C185.089 224.169 209.858 199.4 209.858 168.846C209.858 138.291 185.089 113.522 154.534 113.522C123.98 113.522 99.2109 138.291 99.2109 168.846C99.2109 199.4 123.98 224.169 154.534 224.169Z" fill="#F5AE1A"/>
<path d="M209.857 168.846C209.857 199.395 185.082 224.169 154.533 224.169C138.49 224.169 124.036 217.34 113.94 206.431C123.812 215.577 137.003 221.161 151.525 221.161C182.074 221.161 206.849 196.386 206.849 165.838C206.849 151.332 201.264 138.124 192.119 128.252C203.028 138.349 209.857 152.802 209.857 168.846Z" fill="#D2952D"/>
<path d="M198.876 179.356C204.665 154.866 189.505 130.321 165.016 124.532C140.526 118.743 115.981 133.903 110.192 158.392C104.403 182.882 119.563 207.427 144.052 213.216C168.542 219.005 193.087 203.845 198.876 179.356Z" fill="#F2AD36"/>
<path d="M195.197 131.329C185.343 122.218 172.169 116.669 157.681 116.669C127.132 116.669 102.357 141.443 102.357 171.992C102.357 186.463 107.924 199.637 117.018 209.508C106.074 199.395 99.2109 184.924 99.2109 168.846C99.2109 138.297 123.985 113.522 154.534 113.522C170.613 113.522 185.083 120.386 195.197 131.329Z" fill="#FFC86B"/>
<path d="M188.489 138.452C180.433 131.225 169.766 126.834 158.096 126.834C132.924 126.817 112.506 147.234 112.506 172.407C112.506 184.094 116.897 194.743 124.124 202.8C114.823 194.45 108.962 182.33 108.962 168.845C108.962 143.673 129.362 123.272 154.535 123.272C168.02 123.272 180.156 129.133 188.489 138.452Z" fill="#DC8C1E"/>
<path d="M142.393 171.804V162.839H130.234V193.139H160.615V171.804H142.393ZM142.393 185.454V179.455H148.321V185.454H142.393Z" fill="#C36900"/>
<path d="M148.456 144.537V165.804L166.678 165.77V174.871H178.803V144.537H148.456ZM160.615 158.12V152.188H166.678V158.086H160.615V158.12Z" fill="#C36900"/>
<path d="M142.426 144.537H130.234V156.738H142.426V144.537Z" fill="#C36900"/>
<path d="M178.837 180.938H166.645V193.139H178.837V180.938Z" fill="#C36900"/>
</g>
</g>
<path d="M8.75898 19.9245C4.89511 23.7884 3.01925 28.7931 2.09257 35.6857C1.17187 42.5338 1.17187 51.3931 1.17188 63.0649V63.1454V265.529V265.61C1.17187 277.282 1.17187 286.141 2.09257 292.989C3.01925 299.882 4.89511 304.886 8.75898 308.75C12.6229 312.614 17.6276 314.49 24.5202 315.417C31.3682 316.337 40.2273 316.337 51.8989 316.337H51.9799H254.364H254.445C266.116 316.337 274.976 316.337 281.824 315.417C288.716 314.49 293.721 312.614 297.585 308.75C301.449 304.886 303.324 299.882 304.251 292.989C305.172 286.141 305.172 277.282 305.172 265.61V265.529V63.1454V63.0644C305.172 51.3929 305.172 42.5337 304.251 35.6857C303.324 28.7931 301.449 23.7884 297.585 19.9245C293.721 16.0606 288.716 14.1848 281.824 13.2581C274.975 12.3374 266.116 12.3374 254.444 12.3374H254.364H51.9799H51.8994C40.2276 12.3374 31.3683 12.3374 24.5202 13.2581C17.6276 14.1848 12.6229 16.0606 8.75898 19.9245Z" stroke="url(#paint0_linear_338_2)" stroke-opacity="0.5" stroke-width="2"/>
<g filter="url(#filter0_b_338_2)">
<path d="M293.27 2.54813C294.225 1.74964 295.615 1.74964 296.57 2.54813L301.046 6.28951C301.448 6.62606 301.944 6.83147 302.467 6.87817L308.277 7.39737C309.517 7.50818 310.5 8.49098 310.611 9.73104L311.13 15.5413C311.177 16.064 311.382 16.5599 311.719 16.9625L315.46 21.4381C316.258 22.3933 316.258 23.7832 315.46 24.7384L311.719 29.2141C311.382 29.6167 311.177 30.1126 311.13 30.6352L310.611 36.4455C310.5 37.6856 309.517 38.6684 308.277 38.7792L302.467 39.2984C301.944 39.3451 301.448 39.5505 301.046 39.8871L296.57 43.6284C295.615 44.4269 294.225 44.4269 293.27 43.6284L288.794 39.8871C288.391 39.5505 287.896 39.3451 287.373 39.2984L281.563 38.7792C280.323 38.6684 279.34 37.6856 279.229 36.4455L278.71 30.6352C278.663 30.1126 278.458 29.6167 278.121 29.2141L274.38 24.7384C273.581 23.7832 273.581 22.3933 274.38 21.4381L278.121 16.9625C278.458 16.5599 278.663 16.064 278.71 15.5413L279.229 9.73104C279.34 8.49098 280.323 7.50818 281.563 7.39737L287.373 6.87817C287.896 6.83147 288.391 6.62606 288.794 6.28951L293.27 2.54813Z" fill="#727272" fill-opacity="0.05"/>
<path d="M301.639 5.57998L297.163 1.8386C295.865 0.753094 293.975 0.753094 292.677 1.8386L288.201 5.57998C287.943 5.79556 287.625 5.92714 287.291 5.95705L281.48 6.47625C279.794 6.62689 278.458 7.96295 278.308 9.64873L277.789 15.459C277.759 15.7938 277.627 16.1115 277.412 16.3694L273.67 20.845C272.585 22.1435 272.585 24.033 273.67 25.3316L277.412 29.8072C277.627 30.0651 277.759 30.3827 277.789 30.7175L278.308 36.5278C278.458 38.2136 279.794 39.5497 281.48 39.7003L287.291 40.2195C287.625 40.2494 287.943 40.381 288.201 40.5966L292.677 44.338C293.975 45.4235 295.865 45.4235 297.163 44.338L301.639 40.5966C301.897 40.381 302.214 40.2494 302.549 40.2195L308.359 39.7003C310.045 39.5497 311.381 38.2136 311.532 36.5278L312.051 30.7175C312.081 30.3827 312.213 30.0651 312.428 29.8072L316.17 25.3316C317.255 24.033 317.255 22.1435 316.17 20.845L312.428 16.3694C312.213 16.1115 312.081 15.7938 312.051 15.459L311.532 9.64873C311.381 7.96295 310.045 6.62689 308.359 6.47625L302.549 5.95705C302.214 5.92714 301.897 5.79556 301.639 5.57998Z" stroke="url(#paint1_linear_338_2)" stroke-width="1.84958"/>
</g>
<path d="M281.937 27.4643V18.5632H284.009L288.918 24.4888H287.939V18.5632H290.406V27.4643H288.333L283.425 21.5387H284.404V27.4643H281.937ZM294.776 22.467H298.883V24.4125H294.776V22.467ZM294.954 27.4643H292.436V18.5632H299.417V20.5088H294.954V27.4643ZM302.805 27.4643V20.5596H300.071V18.5632H308.044V20.5596H305.323V27.4643H302.805Z" fill="url(#paint2_linear_338_2)"/>
<defs>
<filter id="filter0_b_338_2" x="266.151" y="-5.68026" width="57.5371" height="57.5371" filterUnits="userSpaceOnUse" color-interpolation-filters="sRGB">
<feFlood flood-opacity="0" result="BackgroundImageFix"/>
<feGaussianBlur in="BackgroundImageFix" stdDeviation="2.88997"/>
<feComposite in2="SourceAlpha" operator="in" result="effect1_backgroundBlur_338_2"/>
<feBlend mode="normal" in="SourceGraphic" in2="effect1_backgroundBlur_338_2" result="shape"/>
</filter>
<linearGradient id="paint0_linear_338_2" x1="47.2397" y1="13.3374" x2="270.086" y2="25.9119" gradientUnits="userSpaceOnUse">
<stop stop-color="#9E74E2"/>
<stop offset="1" stop-color="#56A2FF"/>
</linearGradient>
<linearGradient id="paint1_linear_338_2" x1="279.542" y1="1.1687" x2="309.276" y2="2.9397" gradientUnits="userSpaceOnUse">
<stop stop-color="#70DAD2"/>
<stop offset="1" stop-color="#9E74E2"/>
</linearGradient>
<linearGradient id="paint2_linear_338_2" x1="285.225" y1="18.4643" x2="303.65" y2="21.8787" gradientUnits="userSpaceOnUse">
<stop stop-color="#70DAD2"/>
<stop offset="1" stop-color="#9E74E2"/>
</linearGradient>
<clipPath id="clip0_338_2">
<path d="M2.17188 63.1454C2.17188 39.6657 2.17188 27.9258 9.46609 20.6316C16.7603 13.3374 28.5002 13.3374 51.9799 13.3374H254.364C277.844 13.3374 289.583 13.3374 296.878 20.6316C304.172 27.9258 304.172 39.6657 304.172 63.1454V265.529C304.172 289.009 304.172 300.749 296.878 308.043C289.583 315.337 277.844 315.337 254.364 315.337H51.9799C28.5002 315.337 16.7603 315.337 9.46609 308.043C2.17188 300.749 2.17188 289.009 2.17188 265.529V63.1454Z" fill="white"/>
</clipPath>
<clipPath id="clip1_338_2">
<rect width="110.647" height="110.647" fill="white" transform="translate(99.2133 113.522)"/>
</clipPath>
</defs>
</svg>
