<svg width="21" height="22" viewBox="0 0 21 22" fill="none" xmlns="http://www.w3.org/2000/svg">
<path d="M5.14559 12.2549V8.46167H0.0012207V21.2816H12.855V12.2549H5.14559ZM5.14559 18.0303V15.492H7.65365V18.0303H5.14559Z" fill="url(#paint0_linear_2025_15418)"/>
<path d="M7.71094 0.718262V9.71646L15.4204 9.7022V13.5525H20.5505V0.718262H7.71094ZM12.8553 6.46513V3.95533H15.4204V6.45087H12.8553V6.46513Z" fill="url(#paint1_linear_2025_15418)"/>
<path d="M5.1596 0.718262H0.000976562V5.88046H5.1596V0.718262Z" fill="url(#paint2_linear_2025_15418)"/>
<path d="M20.5651 16.1196H15.4065V21.2818H20.5651V16.1196Z" fill="url(#paint3_linear_2025_15418)"/>
<defs>
<linearGradient id="paint0_linear_2025_15418" x1="0.0012207" y1="14.8716" x2="12.855" y2="14.8716" gradientUnits="userSpaceOnUse">
<stop offset="0.485" stop-color="#1BFFFF"/>
</linearGradient>
<linearGradient id="paint1_linear_2025_15418" x1="7.71094" y1="7.13536" x2="20.5505" y2="7.13536" gradientUnits="userSpaceOnUse">
<stop offset="0.485" stop-color="#1BFFFF"/>
</linearGradient>
<linearGradient id="paint2_linear_2025_15418" x1="0.000976562" y1="3.29936" x2="5.1596" y2="3.29936" gradientUnits="userSpaceOnUse">
<stop offset="0.485" stop-color="#1BFFFF"/>
</linearGradient>
<linearGradient id="paint3_linear_2025_15418" x1="15.4065" y1="18.7007" x2="20.5651" y2="18.7007" gradientUnits="userSpaceOnUse">
<stop offset="0.485" stop-color="#1BFFFF"/>
</linearGradient>
</defs>
</svg>
