<svg width="32" height="33" viewBox="0 0 32 33" fill="none" xmlns="http://www.w3.org/2000/svg">
<path d="M3.68312 14.7953C3.68312 13.8179 4.47543 13.0256 5.4528 13.0256H10.0892C11.0665 13.0256 11.8588 13.8179 11.8588 14.7953V26.173H5.4528C4.47543 26.173 3.68312 25.3807 3.68312 24.4034V14.7953Z" stroke="#57A3FF" stroke-width="1.6"/>
<path d="M11.9141 9.42807C11.9141 8.45071 12.7064 7.6584 13.6838 7.6584H18.3201C19.2975 7.6584 20.0898 8.45071 20.0898 9.42807V26.1732H11.9141V9.42807Z" stroke="#57A3FF" stroke-width="1.6"/>
<path d="M20.1411 18.3314C20.1411 17.354 20.9334 16.5617 21.9108 16.5617H26.5472C27.5245 16.5617 28.3168 17.354 28.3168 18.3314V24.4032C28.3168 25.3805 27.5245 26.1728 26.5472 26.1728H20.1411V18.3314Z" stroke="#57A3FF" stroke-width="1.6"/>
</svg>
