<svg width="33" height="33" viewBox="0 0 33 33" fill="none" xmlns="http://www.w3.org/2000/svg">
<path d="M17.6517 22.8687H14.8806C13.0701 22.8687 11.6018 21.3451 11.6018 19.4684C11.6018 19.0157 11.9771 18.6404 12.4298 18.6404C12.8824 18.6404 13.2578 19.0157 13.2578 19.4684C13.2578 20.4288 13.9864 21.2127 14.8806 21.2127H17.6517C18.3693 21.2127 18.9654 20.5724 18.9654 19.7996C18.9654 18.8391 18.6232 18.6514 18.0601 18.4527L13.611 16.885C12.7499 16.5869 11.5907 15.9466 11.5907 13.9705C11.5907 12.2703 12.9266 10.9014 14.5605 10.9014H17.3315C19.142 10.9014 20.6104 12.4249 20.6104 14.3017C20.6104 14.7543 20.235 15.1297 19.7824 15.1297C19.3297 15.1297 18.9544 14.7543 18.9544 14.3017C18.9544 13.3412 18.2257 12.5574 17.3315 12.5574H14.5605C13.8429 12.5574 13.2467 13.1977 13.2467 13.9705C13.2467 14.9309 13.589 15.1186 14.152 15.3173L18.6011 16.885C19.4622 17.1831 20.6214 17.8234 20.6214 19.7996C20.6104 21.4887 19.2856 22.8687 17.6517 22.8687Z" fill="#A0A0A0"/>
<path d="M16.106 24.3365C15.6534 24.3365 15.278 23.9612 15.278 23.5085V10.2606C15.278 9.80798 15.6534 9.43262 16.106 9.43262C16.5586 9.43262 16.934 9.80798 16.934 10.2606V23.5085C16.934 23.9612 16.5586 24.3365 16.106 24.3365Z" fill="#A0A0A0"/>
<path d="M19.418 28.7525H12.794C6.79936 28.7525 4.2381 26.1912 4.2381 20.1965V13.5726C4.2381 7.57787 6.79936 5.0166 12.794 5.0166H19.418C25.4127 5.0166 27.974 7.57787 27.974 13.5726V20.1965C27.974 26.1912 25.4127 28.7525 19.418 28.7525ZM12.794 6.67259C7.70464 6.67259 5.89409 8.48314 5.89409 13.5726V20.1965C5.89409 25.2859 7.70464 27.0965 12.794 27.0965H19.418C24.5074 27.0965 26.318 25.2859 26.318 20.1965V13.5726C26.318 8.48314 24.5074 6.67259 19.418 6.67259H12.794Z" fill="#A0A0A0"/>
</svg>
