<svg width="32" height="33" viewBox="0 0 32 33" fill="none" xmlns="http://www.w3.org/2000/svg">
<path d="M17.5456 22.9019H14.7746C12.9641 22.9019 11.4957 21.3784 11.4957 19.5016C11.4957 19.0489 11.8711 18.6736 12.3237 18.6736C12.7764 18.6736 13.1517 19.0489 13.1517 19.5016C13.1517 20.462 13.8804 21.2459 14.7746 21.2459H17.5456C18.2632 21.2459 18.8594 20.6056 18.8594 19.8328C18.8594 18.8723 18.5171 18.6846 17.9541 18.4859L13.505 16.9182C12.6439 16.6201 11.4847 15.9798 11.4847 14.0037C11.4847 12.3035 12.8205 10.9346 14.4544 10.9346H17.2255C19.036 10.9346 20.5043 12.4581 20.5043 14.3349C20.5043 14.7875 20.129 15.1629 19.6763 15.1629C19.2237 15.1629 18.8483 14.7875 18.8483 14.3349C18.8483 13.3744 18.1197 12.5906 17.2255 12.5906H14.4544C13.7369 12.5906 13.1407 13.2309 13.1407 14.0037C13.1407 14.9641 13.4829 15.1518 14.046 15.3505L18.4951 16.9182C19.3562 17.2163 20.5154 17.8566 20.5154 19.8328C20.5043 21.5219 19.1795 22.9019 17.5456 22.9019Z" fill="#57A3FF"/>
<path d="M16 24.3697C15.5474 24.3697 15.172 23.9944 15.172 23.5417V10.2938C15.172 9.84118 15.5474 9.46582 16 9.46582C16.4526 9.46582 16.828 9.84118 16.828 10.2938V23.5417C16.828 23.9944 16.4526 24.3697 16 24.3697Z" fill="#57A3FF"/>
<path d="M19.312 28.7857H12.688C6.69333 28.7857 4.13207 26.2244 4.13207 20.2297V13.6058C4.13207 7.61107 6.69333 5.0498 12.688 5.0498H19.312C25.3067 5.0498 27.8679 7.61107 27.8679 13.6058V20.2297C27.8679 26.2244 25.3067 28.7857 19.312 28.7857ZM12.688 6.7058C7.59861 6.7058 5.78806 8.51634 5.78806 13.6058V20.2297C5.78806 25.3191 7.59861 27.1297 12.688 27.1297H19.312C24.4014 27.1297 26.2119 25.3191 26.2119 20.2297V13.6058C26.2119 8.51634 24.4014 6.7058 19.312 6.7058H12.688Z" fill="#57A3FF"/>
</svg>
