<svg width="32" height="33" viewBox="0 0 32 33" fill="none" xmlns="http://www.w3.org/2000/svg">
<path d="M15.9453 19.4996C17.9518 19.4996 19.5784 17.873 19.5784 15.8665C19.5784 13.86 17.9518 12.2334 15.9453 12.2334C13.9387 12.2334 12.3121 13.86 12.3121 15.8665C12.3121 17.873 13.9387 19.4996 15.9453 19.4996Z" stroke="#B0B0B0" stroke-width="1.6" stroke-miterlimit="10" stroke-linecap="round" stroke-linejoin="round"/>
<path d="M3.83484 16.9323V14.8008C3.83484 13.5414 4.86422 12.4999 6.13581 12.4999C8.32779 12.4999 9.22396 10.9497 8.12192 9.0484C7.49218 7.95846 7.8676 6.54155 8.96964 5.91181L11.0647 4.71288C12.0215 4.14369 13.2567 4.48278 13.8259 5.4395L13.9591 5.6696C15.0491 7.57093 16.8414 7.57093 17.9434 5.6696L18.0767 5.4395C18.6458 4.48278 19.8811 4.14369 20.8378 4.71288L22.9329 5.91181C24.035 6.54155 24.4104 7.95846 23.7807 9.0484C22.6786 10.9497 23.5748 12.4999 25.7668 12.4999C27.0262 12.4999 28.0677 13.5292 28.0677 14.8008V16.9323C28.0677 18.1917 27.0384 19.2332 25.7668 19.2332C23.5748 19.2332 22.6786 20.7834 23.7807 22.6847C24.4104 23.7867 24.035 25.1916 22.9329 25.8213L20.8378 27.0202C19.8811 27.5894 18.6458 27.2503 18.0767 26.2936L17.9434 26.0635C16.8535 24.1622 15.0612 24.1622 13.9591 26.0635L13.8259 26.2936C13.2567 27.2503 12.0215 27.5894 11.0647 27.0202L8.96964 25.8213C7.8676 25.1916 7.49218 23.7746 8.12192 22.6847C9.22396 20.7834 8.32779 19.2332 6.13581 19.2332C4.86422 19.2332 3.83484 18.1917 3.83484 16.9323Z" stroke="#B0B0B0" stroke-width="1.6" stroke-miterlimit="10" stroke-linecap="round" stroke-linejoin="round"/>
</svg>
