<svg width="24" height="25" viewBox="0 0 24 25" fill="none" xmlns="http://www.w3.org/2000/svg">
<path d="M7.19 4.3195L16.987 9.8315V15.4565L2 7.0265L6.806 4.3265C6.86552 4.2958 6.93153 4.27979 6.9985 4.27979C7.06547 4.27979 7.13148 4.2958 7.191 4.3265L7.19 4.3195Z" fill="#3CA9E5"/>
<path d="M16.995 4.20654L11.997 7.01954L16.995 9.83154V4.20654Z" fill="#2853C3"/>
<path d="M16.994 4.20654L21.8 6.90654C21.8576 6.94048 21.9055 6.98865 21.9391 7.04644C21.9728 7.10423 21.991 7.16969 21.992 7.23654V18.2695L16.994 15.4645V4.20654Z" fill="#1A4199"/>
<path d="M22 18.2725L17.187 20.9765C17.1246 21.0112 17.0544 21.0294 16.983 21.0294C16.9116 21.0294 16.8414 21.0112 16.779 20.9765L6.983 15.4635V9.82349L22 18.2725Z" fill="#2853C3"/>
<path d="M2 7.01855V18.0516C1.9984 18.1209 2.01536 18.1895 2.04911 18.2501C2.08286 18.3108 2.13219 18.3613 2.192 18.3966L6.998 21.0966V9.83155L2 7.01855Z" fill="#60BEFF"/>
<path d="M6.99899 21.0895L11.997 18.2765L6.99899 15.4565V21.0895Z" fill="#3CA9E5"/>
</svg>
