<svg width="24" height="25" viewBox="0 0 24 25" fill="none" xmlns="http://www.w3.org/2000/svg">
<path d="M11.998 4.65161C6.476 4.65161 2 9.40161 2 15.2586V19.8046C2 20.6406 2.639 21.3186 3.427 21.3186C4.216 21.3186 4.859 20.6406 4.859 19.8046V15.2586C4.859 14.4206 5.496 13.7426 6.286 13.7426C7.075 13.7426 7.714 14.4206 7.714 15.2586V19.8046C7.714 20.6406 8.352 21.3186 9.141 21.3186C9.931 21.3186 10.571 20.6406 10.571 19.8046V15.2586C10.571 14.4206 11.209 13.7426 11.998 13.7426C12.788 13.7426 13.43 14.4206 13.43 15.2586V19.8046C13.43 20.6406 14.068 21.3186 14.857 21.3186C15.645 21.3186 16.284 20.6406 16.284 19.8046V15.2586C16.284 14.4206 16.923 13.7426 17.716 13.7426C18.504 13.7426 19.143 14.4206 19.143 15.2586V19.8046C19.143 20.6406 19.782 21.3186 20.573 21.3186C21.361 21.3186 22 20.6406 22 19.8046V15.2586C22 9.40161 17.522 4.65161 11.998 4.65161Z" fill="#7133F5"/>
</svg>
