<svg width="24" height="25" viewBox="0 0 24 25" fill="none" xmlns="http://www.w3.org/2000/svg">
<path d="M8.671 12.6515L14.488 18.5775L18.168 14.8415C18.3222 14.6869 18.5054 14.5641 18.7071 14.4804C18.9088 14.3967 19.1251 14.3536 19.3435 14.3536C19.5619 14.3536 19.7782 14.3967 19.9799 14.4804C20.1816 14.5641 20.3648 14.6869 20.519 14.8415C20.8274 15.1629 20.9996 15.5911 20.9996 16.0365C20.9996 16.4819 20.8274 16.9101 20.519 17.2315L15.669 22.1685C15.3557 22.4778 14.9332 22.6512 14.493 22.6512C14.0528 22.6512 13.6303 22.4778 13.317 22.1685L6.216 15.0535V19.2785C6.228 20.1825 5.523 20.9505 4.608 20.9685C3.688 20.9565 2.988 20.1865 3 19.2785V6.02451C3 5.09151 3.685 4.33451 4.608 4.33451C5.519 4.33451 6.216 5.09151 6.216 6.02451V10.2495L13.318 3.13451C13.6313 2.82526 14.0538 2.65186 14.494 2.65186C14.9342 2.65186 15.3567 2.82526 15.67 3.13451L20.508 8.07051C20.8168 8.39167 20.9894 8.81994 20.9894 9.26551C20.9894 9.71108 20.8168 10.1393 20.508 10.4605C20.197 10.7695 19.7764 10.9429 19.338 10.9429C18.8996 10.9429 18.479 10.7695 18.168 10.4605L14.488 6.72551L8.671 12.6515ZM14.499 10.9615C15.411 10.9615 16.153 11.7175 16.153 12.6515C16.153 13.5855 15.411 14.3415 14.499 14.3415C13.587 14.3415 12.834 13.5855 12.834 12.6515C12.834 11.7175 13.577 10.9615 14.499 10.9615Z" fill="#23AF91"/>
</svg>
