<svg width="32" height="32" viewBox="0 0 32 32" fill="none" xmlns="http://www.w3.org/2000/svg">
<path fill-rule="evenodd" clip-rule="evenodd" d="M9.11082 3H9.20949C10.1141 2.99998 10.8653 2.99997 11.4758 3.05524C12.1119 3.11283 12.7016 3.23721 13.2476 3.55211C13.8755 3.91422 14.3987 4.4361 14.7632 5.06675C15.0813 5.61701 15.2068 6.2118 15.2648 6.85094C15.3203 7.46278 15.3203 8.2148 15.3203 9.11699V9.21896C15.3203 10.1211 15.3203 10.8732 15.2648 11.485C15.2068 12.1241 15.0813 12.7189 14.7632 13.2692C14.3987 13.8998 13.8755 14.4217 13.2476 14.7838C12.7016 15.0987 12.1119 15.2231 11.4758 15.2807C10.8653 15.336 10.1141 15.336 9.2095 15.3359H9.11081C8.20617 15.336 7.45504 15.336 6.84451 15.2807C6.20838 15.2231 5.6187 15.0987 5.07268 14.7838C4.44479 14.4217 3.92159 13.8998 3.55709 13.2692C3.23904 12.7189 3.11347 12.1241 3.05548 11.485C2.99997 10.8732 2.99998 10.1211 3 9.21892V9.11703C2.99998 8.21482 2.99997 7.46279 3.05548 6.85094C3.11347 6.2118 3.23904 5.61701 3.55709 5.06674C3.92159 4.4361 4.44479 3.91422 5.07268 3.55211C5.6187 3.23721 6.20838 3.11283 6.84451 3.05524C7.45504 2.99997 8.20618 2.99998 9.11082 3ZM7.03978 5.26518C6.55302 5.30924 6.31685 5.38818 6.15778 5.47992C5.86185 5.65059 5.6179 5.89501 5.44904 6.18717C5.36 6.34121 5.28203 6.57136 5.23825 7.05387C5.19304 7.55218 5.19196 8.20172 5.19196 9.16797C5.19196 10.1342 5.19304 10.7838 5.23825 11.2821C5.28203 11.7646 5.36 11.9947 5.44904 12.1488C5.6179 12.4409 5.86185 12.6854 6.15778 12.856C6.31685 12.9478 6.55302 13.0267 7.03978 13.0708C7.54106 13.1162 8.19364 13.1172 9.16015 13.1172C10.1267 13.1172 10.7792 13.1162 11.2805 13.0708C11.7673 13.0267 12.0035 12.9478 12.1625 12.856C12.4585 12.6854 12.7024 12.4409 12.8713 12.1488C12.9603 11.9947 13.0383 11.7646 13.0821 11.2821C13.1273 10.7838 13.1284 10.1342 13.1284 9.16797C13.1284 8.20172 13.1273 7.55218 13.0821 7.05387C13.0383 6.57136 12.9603 6.34121 12.8713 6.18717C12.7024 5.89501 12.4585 5.65059 12.1625 5.47992C12.0035 5.38818 11.7673 5.30924 11.2805 5.26518C10.7792 5.21979 10.1267 5.21876 9.16015 5.21876C8.19364 5.21876 7.54106 5.21979 7.03978 5.26518ZM23.2905 3H23.3892C24.2938 2.99998 25.045 2.99997 25.6555 3.05524C26.2916 3.11283 26.8813 3.23721 27.4273 3.55211C28.0552 3.91422 28.5784 4.4361 28.9429 5.06675C29.261 5.61701 29.3865 6.2118 29.4445 6.85094C29.5 7.46279 29.5 8.21482 29.5 9.11704V9.2189C29.5 10.1211 29.5 10.8731 29.4445 11.485C29.3865 12.1241 29.261 12.7189 28.9429 13.2692C28.5784 13.8998 28.0552 14.4217 27.4273 14.7838C26.8813 15.0987 26.2916 15.2231 25.6555 15.2807C25.045 15.336 24.2938 15.336 23.3892 15.3359H23.2905C22.3859 15.336 21.6347 15.336 21.0242 15.2807C20.3881 15.2231 19.7984 15.0987 19.2524 14.7838C18.6245 14.4217 18.1013 13.8998 17.7368 13.2692C17.4187 12.7189 17.2932 12.1241 17.2352 11.485C17.1797 10.8731 17.1797 10.1211 17.1797 9.2189V9.11704C17.1797 8.21482 17.1797 7.46279 17.2352 6.85094C17.2932 6.2118 17.4187 5.61701 17.7368 5.06674C18.1013 4.4361 18.6245 3.91422 19.2524 3.55211C19.7984 3.23721 20.3881 3.11283 21.0242 3.05524C21.6347 2.99997 22.3859 2.99998 23.2905 3ZM21.2195 5.26518C20.7327 5.30924 20.4965 5.38818 20.3375 5.47992C20.0415 5.65059 19.7976 5.89501 19.6287 6.18717C19.5397 6.34121 19.4617 6.57136 19.4179 7.05387C19.3727 7.55218 19.3716 8.20172 19.3716 9.16797C19.3716 10.1342 19.3727 10.7838 19.4179 11.2821C19.4617 11.7646 19.5397 11.9947 19.6287 12.1488C19.7976 12.4409 20.0415 12.6854 20.3375 12.856C20.4965 12.9478 20.7327 13.0267 21.2195 13.0708C21.7208 13.1162 22.3733 13.1172 23.3398 13.1172C24.3064 13.1172 24.9589 13.1162 25.4602 13.0708C25.947 13.0267 26.1832 12.9478 26.3422 12.856C26.6382 12.6854 26.8821 12.4409 27.051 12.1488C27.14 11.9947 27.218 11.7646 27.2618 11.2821C27.307 10.7838 27.308 10.1342 27.308 9.16797C27.308 8.20172 27.307 7.55218 27.2618 7.05387C27.218 6.57136 27.14 6.34121 27.051 6.18717C26.8821 5.89501 26.6382 5.65059 26.3422 5.47992C26.1832 5.38818 25.947 5.30924 25.4602 5.26518C24.9589 5.21979 24.3064 5.21876 23.3398 5.21876C22.3733 5.21876 21.7208 5.21979 21.2195 5.26518ZM9.11086 17.1641H9.20945C10.1141 17.164 10.8653 17.164 11.4758 17.2193C12.1119 17.2769 12.7016 17.4013 13.2476 17.7162C13.8755 18.0783 14.3987 18.6002 14.7632 19.2308C15.0813 19.7811 15.2068 20.3759 15.2648 21.015C15.3203 21.6268 15.3203 22.3789 15.3203 23.281V23.383C15.3203 24.2852 15.3203 25.0372 15.2648 25.6491C15.2068 26.2882 15.0813 26.883 14.7632 27.4333C14.3987 28.0639 13.8755 28.5858 13.2476 28.9479C12.7016 29.2628 12.1119 29.3872 11.4758 29.4448C10.8653 29.5 10.1142 29.5 9.20955 29.5H9.11076C8.20614 29.5 7.45503 29.5 6.84451 29.4448C6.20838 29.3872 5.6187 29.2628 5.07268 28.9479C4.4448 28.5858 3.92159 28.0639 3.55709 27.4333C3.23904 26.883 3.11347 26.2882 3.05548 25.6491C2.99997 25.0372 2.99998 24.2852 3 23.383V23.2811C2.99998 22.3789 2.99997 21.6268 3.05548 21.015C3.11347 20.3759 3.23904 19.7811 3.55709 19.2308C3.92159 18.6002 4.44479 18.0783 5.07268 17.7162C5.6187 17.4013 6.20838 17.2769 6.84451 17.2193C7.45505 17.164 8.2062 17.164 9.11086 17.1641ZM7.03978 19.4292C6.55302 19.4733 6.31685 19.5522 6.15778 19.644C5.86185 19.8146 5.6179 20.0591 5.44904 20.3512C5.36 20.5053 5.28203 20.7354 5.23825 21.2179C5.19304 21.7162 5.19196 22.3658 5.19196 23.332C5.19196 24.2983 5.19304 24.9478 5.23825 25.4461C5.28203 25.9286 5.36 26.1588 5.44904 26.3128C5.6179 26.605 5.86185 26.8494 6.15778 27.0201C6.31685 27.1118 6.55302 27.1908 7.03978 27.2348C7.54106 27.2802 8.19364 27.2812 9.16015 27.2812C10.1267 27.2812 10.7792 27.2802 11.2805 27.2348C11.7673 27.1908 12.0035 27.1118 12.1625 27.0201C12.4585 26.8494 12.7024 26.605 12.8713 26.3128C12.9603 26.1588 13.0383 25.9286 13.0821 25.4461C13.1273 24.9478 13.1284 24.2983 13.1284 23.332C13.1284 22.3658 13.1273 21.7162 13.0821 21.2179C13.0383 20.7354 12.9603 20.5053 12.8713 20.3512C12.7024 20.0591 12.4585 19.8146 12.1625 19.644C12.0035 19.5522 11.7673 19.4733 11.2805 19.4292C10.7792 19.3838 10.1267 19.3828 9.16015 19.3828C8.19364 19.3828 7.54106 19.3838 7.03978 19.4292Z" fill="#A0A0A0"/>
<path d="M20.1377 18.6691C20.9432 18.6691 21.5962 19.3214 21.5962 20.126C21.5962 20.9306 20.9432 21.5829 20.1377 21.5829C19.3322 21.5829 18.6792 20.9306 18.6792 20.126C18.6792 19.3214 19.3322 18.6691 20.1377 18.6691Z" fill="#A0A0A0"/>
<path d="M23.5408 22.0685C24.3463 22.0685 24.9993 22.7208 24.9993 23.5254C24.9993 24.33 24.3463 24.9823 23.5408 24.9823C22.7353 24.9823 22.0824 24.33 22.0824 23.5254C22.0824 22.7208 22.7353 22.0685 23.5408 22.0685Z" fill="#A0A0A0"/>
<path d="M26.944 18.6691C27.7495 18.6691 28.4024 19.3214 28.4024 20.126C28.4024 20.9306 27.7495 21.5829 26.944 21.5829C26.1385 21.5829 25.4855 20.9306 25.4855 20.126C25.4855 19.3214 26.1385 18.6691 26.944 18.6691Z" fill="#A0A0A0"/>
<path d="M20.1377 25.4679C20.9432 25.4679 21.5962 26.1202 21.5962 26.9248C21.5962 27.7294 20.9432 28.3817 20.1377 28.3817C19.3322 28.3817 18.6792 27.7294 18.6792 26.9248C18.6792 26.1202 19.3322 25.4679 20.1377 25.4679Z" fill="#A0A0A0"/>
<path d="M26.944 25.4679C27.7495 25.4679 28.4024 26.1202 28.4024 26.9248C28.4024 27.7294 27.7495 28.3817 26.944 28.3817C26.1385 28.3817 25.4855 27.7294 25.4855 26.9248C25.4855 26.1202 26.1385 25.4679 26.944 25.4679Z" fill="#A0A0A0"/>
</svg>