<svg width="24" height="25" viewBox="0 0 24 25" fill="none" xmlns="http://www.w3.org/2000/svg">
<path d="M16.624 14.5716L19.342 17.2876L11.989 24.6406L4.636 17.2886L7.353 14.5716L11.989 19.2316L16.624 14.5716ZM21.261 9.93557L24 12.6516L21.285 15.3676L18.568 12.6516L21.261 9.93557ZM11.989 9.93557L14.705 12.6276L11.988 15.3446L9.272 12.6516L11.989 9.93557ZM2.716 9.93557L5.41 12.6516L2.718 15.3436L0 12.6516L2.716 9.93557ZM11.99 0.663574L19.34 7.99157L16.623 10.7066L11.99 6.07157L7.354 10.7316L4.637 8.01557L11.99 0.663574Z" fill="#F3BA2F"/>
</svg>
