<svg width="32" height="33" viewBox="0 0 32 33" fill="none" xmlns="http://www.w3.org/2000/svg">
<path d="M12 4.81917C13.9521 3.6921 14.9282 3.12857 16 3.12857C17.0718 3.12857 18.0479 3.6921 20 4.81917L24.1159 7.19548C26.068 8.32255 27.0441 8.88608 27.58 9.81428C28.1159 10.7425 28.1159 11.8696 28.1159 14.1237V18.8763C28.1159 21.1304 28.1159 22.2575 27.58 23.1857C27.0441 24.1139 26.068 24.6775 24.1159 25.8045L20 28.1808C18.0479 29.3079 17.0718 29.8714 16 29.8714C14.9282 29.8714 13.9521 29.3079 12 28.1808L7.8841 25.8045C5.93197 24.6775 4.9559 24.1139 4.42 23.1857C3.8841 22.2575 3.8841 21.1304 3.8841 18.8763V14.1237C3.8841 11.8696 3.8841 10.7425 4.42 9.81428C4.9559 8.88608 5.93197 8.32255 7.8841 7.19548L12 4.81917Z" fill="#FF8A00"/>
<path d="M12.1 6.06708C13.0794 5.5016 13.8017 5.08487 14.4127 4.8081C15.0196 4.53315 15.5025 4.40327 16 4.40327C16.4975 4.40327 16.9804 4.53315 17.5873 4.8081C18.1983 5.08487 18.9206 5.5016 19.9 6.06708L23.0853 7.9061C24.0647 8.47158 24.7867 8.8887 25.3319 9.27943C25.8735 9.6676 26.2274 10.0208 26.4762 10.4517C26.7249 10.8826 26.8539 11.3657 26.9193 12.0288C26.9851 12.6963 26.9853 13.5301 26.9853 14.6611V18.3391C26.9853 19.4701 26.9851 20.3039 26.9193 20.9714C26.8539 21.6346 26.7249 22.1177 26.4762 22.5485C26.2274 22.9794 25.8735 23.3326 25.3319 23.7208C24.7867 24.1115 24.0647 24.5287 23.0853 25.0941L19.9 26.9332C18.9206 27.4986 18.1983 27.9154 17.5873 28.1921C16.9804 28.4671 16.4975 28.597 16 28.597C15.5025 28.597 15.0196 28.4671 14.4127 28.1921C13.8017 27.9154 13.0794 27.4986 12.1 26.9332L8.91472 25.0941C7.93528 24.5287 7.21326 24.1115 6.66809 23.7208C6.12649 23.3326 5.77258 22.9794 5.52382 22.5485C5.27506 22.1177 5.14611 21.6346 5.08074 20.9714C5.01494 20.3039 5.01472 19.4701 5.01472 18.3391V14.6611C5.01472 13.5301 5.01494 12.6963 5.08074 12.0288C5.14611 11.3657 5.27506 10.8826 5.52382 10.4517C5.77258 10.0208 6.12649 9.6676 6.66809 9.27943C7.21326 8.8887 7.93528 8.47158 8.91472 7.9061L12.1 6.06708Z" stroke="#0A0C1A" stroke-width="0.4"/>
<path d="M7.98838 20.5L11.3544 15.825L11.3434 17.376L8.10938 12.8H10.5624L12.6304 15.781L11.5854 15.792L13.6204 12.8H15.9744L12.7404 17.288V15.748L16.1504 20.5H13.6424L11.5414 17.365H12.5424L10.4744 20.5H7.98838ZM16.8744 20.5V12.8H20.3944C21.0984 12.8 21.7034 12.9137 22.2094 13.141C22.7227 13.3683 23.1187 13.6983 23.3974 14.131C23.6761 14.5563 23.8154 15.0623 23.8154 15.649C23.8154 16.2283 23.6761 16.7307 23.3974 17.156C23.1187 17.5813 22.7227 17.9113 22.2094 18.146C21.7034 18.3733 21.0984 18.487 20.3944 18.487H18.0844L19.0524 17.541V20.5H16.8744ZM19.0524 17.772L18.0844 16.771H20.2624C20.7171 16.771 21.0544 16.672 21.2744 16.474C21.5017 16.276 21.6154 16.001 21.6154 15.649C21.6154 15.2897 21.5017 15.011 21.2744 14.813C21.0544 14.615 20.7171 14.516 20.2624 14.516H18.0844L19.0524 13.515V17.772Z" fill="#0A0C1A"/>
</svg>
