<svg width="32" height="33" viewBox="0 0 32 33" fill="none" xmlns="http://www.w3.org/2000/svg">
<path d="M12 5.04085C13.9521 3.91378 14.9282 3.35025 16 3.35025C17.0718 3.35025 18.0479 3.91378 20 5.04085L24.1159 7.41716C26.068 8.54423 27.0441 9.10776 27.58 10.036C28.1159 10.9642 28.1159 12.0912 28.1159 14.3454V19.098C28.1159 21.3521 28.1159 22.4792 27.58 23.4074C27.0441 24.3356 26.068 24.8991 24.1159 26.0262L20 28.4025C18.0479 29.5296 17.0718 30.0931 16 30.0931C14.9282 30.0931 13.9521 29.5296 12 28.4025L7.8841 26.0262C5.93197 24.8991 4.9559 24.3356 4.42 23.4074C3.8841 22.4792 3.8841 21.3521 3.8841 19.098V14.3454C3.8841 12.0912 3.8841 10.9642 4.42 10.036C4.9559 9.10776 5.93197 8.54423 7.8841 7.41716L12 5.04085Z" fill="url(#paint0_linear_964_38781)"/>
<path d="M12.1 6.28876C13.0794 5.72328 13.8017 5.30655 14.4127 5.02978C15.0196 4.75483 15.5025 4.62495 16 4.62495C16.4975 4.62495 16.9804 4.75483 17.5873 5.02978C18.1983 5.30655 18.9206 5.72328 19.9 6.28876L23.0853 8.12778C24.0647 8.69326 24.7867 9.11038 25.3319 9.50111C25.8735 9.88928 26.2274 10.2425 26.4762 10.6734C26.7249 11.1042 26.8539 11.5874 26.9193 12.2505C26.9851 12.918 26.9853 13.7518 26.9853 14.8828V18.5608C26.9853 19.6918 26.9851 20.5256 26.9193 21.1931C26.8539 21.8563 26.7249 22.3394 26.4762 22.7702C26.2274 23.2011 25.8735 23.5543 25.3319 23.9425C24.7867 24.3332 24.0647 24.7503 23.0853 25.3158L19.9 27.1548C18.9206 27.7203 18.1983 28.1371 17.5873 28.4138C16.9804 28.6888 16.4975 28.8186 16 28.8186C15.5025 28.8186 15.0196 28.6888 14.4127 28.4138C13.8017 28.1371 13.0794 27.7203 12.1 27.1548L8.91472 25.3158C7.93528 24.7503 7.21326 24.3332 6.66809 23.9425C6.12649 23.5543 5.77258 23.2011 5.52382 22.7702C5.27506 22.3394 5.14611 21.8563 5.08074 21.1931C5.01494 20.5256 5.01472 19.6918 5.01472 18.5608V14.8828C5.01472 13.7518 5.01494 12.918 5.08074 12.2505C5.14611 11.5874 5.27506 11.1042 5.52382 10.6734C5.77258 10.2425 6.12649 9.88928 6.66809 9.50111C7.21326 9.11038 7.93528 8.69326 8.91472 8.12778L12.1 6.28876Z" stroke="#0A0C1A" stroke-width="0.4"/>
<path d="M7.98838 20.7217L11.3544 16.0467L11.3434 17.5977L8.10938 13.0217H10.5624L12.6304 16.0027L11.5854 16.0137L13.6204 13.0217H15.9744L12.7404 17.5097V15.9697L16.1504 20.7217H13.6424L11.5414 17.5867H12.5424L10.4744 20.7217H7.98838ZM16.8744 20.7217V13.0217H20.3944C21.0984 13.0217 21.7034 13.1353 22.2094 13.3627C22.7227 13.59 23.1187 13.92 23.3974 14.3527C23.6761 14.778 23.8154 15.284 23.8154 15.8707C23.8154 16.45 23.6761 16.9523 23.3974 17.3777C23.1187 17.803 22.7227 18.133 22.2094 18.3677C21.7034 18.595 21.0984 18.7087 20.3944 18.7087H18.0844L19.0524 17.7627V20.7217H16.8744ZM19.0524 17.9937L18.0844 16.9927H20.2624C20.7171 16.9927 21.0544 16.8937 21.2744 16.6957C21.5017 16.4977 21.6154 16.2227 21.6154 15.8707C21.6154 15.5113 21.5017 15.2327 21.2744 15.0347C21.0544 14.8367 20.7171 14.7377 20.2624 14.7377H18.0844L19.0524 13.7367V17.9937Z" fill="#0A0C1A"/>
<defs>
<linearGradient id="paint0_linear_964_38781" x1="4.13087" y1="5.84039" x2="28.1099" y2="28.8621" gradientUnits="userSpaceOnUse">
<stop stop-color="#73FFB9"/>
<stop offset="0.5" stop-color="#56A2FF"/>
<stop offset="1" stop-color="#9E74E2"/>
</linearGradient>
</defs>
</svg>
